<svg width="2898" height="2048" viewBox="0 0 2898 2048" fill="none" xmlns="http://www.w3.org/2000/svg" xmlns:xlink="http://www.w3.org/1999/xlink">
<path d="M2879.579,-0.208L-0.421,-0.208L-0.421,2047.792L2879.579,2047.792L2879.579,-0.208Z" fill="#FFFFFF"/>
<path d="M2879.579,-0.208L-0.421,-0.208L-0.421,2047.792L2879.579,2047.792L2879.579,-0.208Z" fill="#FFFFFF"/>
<path d="M2896.199,-0.208L-0.421,-0.208L-0.421,2047.792L2896.199,2047.792L2896.199,-0.208Z" fill="url(#pattern_0_24_9)"/>
<path d="M2881.579,-0.208L1.579,-0.208L1.579,2047.792L2881.579,2047.792L2881.579,-0.208Z" fill="#111111" fill-opacity="0.25"/>
<path d="M2187.579,173.792L693.579,173.792C667.069,173.792 645.579,195.283 645.579,221.792L645.579,1847.792C645.579,1874.302 667.069,1895.792 693.579,1895.792L2187.579,1895.792C2214.089,1895.792 2235.579,1874.302 2235.579,1847.792L2235.579,221.792C2235.579,195.283 2214.089,173.792 2187.579,173.792Z" fill="#FFFFFF"/>
<path d="M2158.239,254.886L2154.479,251.126L2139.579,266.032L2124.679,251.126L2120.919,254.886L2135.819,269.792L2120.919,284.698L2124.679,288.458L2139.579,273.552L2154.479,288.458L2158.239,284.698L2143.339,269.792L2158.239,254.886Z" fill="#666666"/>
<path d="M1441.579,349.792C1468.088,349.792 1489.579,328.302 1489.579,301.792C1489.579,275.283 1468.088,253.792 1441.579,253.792C1415.069,253.792 1393.579,275.283 1393.579,301.792C1393.579,328.302 1415.069,349.792 1441.579,349.792Z" fill="#C4C4C4"/>
<path d="M1358.487,466.656L1374.103,466.656L1374.103,471.392L1352.663,471.392L1352.663,426.784L1358.487,426.784L1358.487,466.656ZM1386.679,469.728Q1382.679,467.488 1380.407,463.36Q1378.135,459.232 1378.135,453.792Q1378.135,448.416 1380.471,444.288Q1382.807,440.16 1386.839,437.952Q1390.871,435.744 1395.863,435.744Q1400.855,435.744 1404.887,437.952Q1408.919,440.16 1411.255,444.256Q1413.591,448.352 1413.591,453.792Q1413.591,459.232 1411.191,463.36Q1408.791,467.488 1404.695,469.728Q1400.599,471.968 1395.607,471.968Q1390.679,471.968 1386.679,469.728M1401.495,465.376Q1404.247,463.904 1405.943,460.96Q1407.639,458.016 1407.639,453.792Q1407.639,449.568 1405.975,446.624Q1404.311,443.68 1401.623,442.24Q1398.935,440.8 1395.799,440.8Q1392.599,440.8 1389.943,442.24Q1387.287,443.68 1385.687,446.624Q1384.087,449.568 1384.087,453.792Q1384.087,458.08 1385.655,461.024Q1387.223,463.968 1389.847,465.408Q1392.471,466.848 1395.607,466.848Q1398.743,466.848 1401.495,465.376ZM1443.703,437.728Q1447.127,439.712 1448.791,442.72L1448.791,436.32L1454.679,436.32L1454.679,472.16Q1454.679,476.96 1452.631,480.704Q1450.583,484.448 1446.775,486.56Q1442.967,488.672 1437.911,488.672Q1430.999,488.672 1426.391,485.408Q1421.783,482.144 1420.951,476.512L1426.711,476.512Q1427.671,479.712 1430.679,481.664Q1433.687,483.616 1437.911,483.616Q1442.711,483.616 1445.751,480.608Q1448.791,477.6 1448.791,472.16L1448.791,464.8Q1447.063,467.872 1443.671,469.92Q1440.279,471.968 1435.735,471.968Q1431.063,471.968 1427.255,469.664Q1423.447,467.36 1421.271,463.2Q1419.095,459.04 1419.095,453.728Q1419.095,448.352 1421.271,444.288Q1423.447,440.224 1427.255,437.984Q1431.063,435.744 1435.735,435.744Q1440.279,435.744 1443.703,437.728M1447.191,446.88Q1445.591,443.936 1442.871,442.368Q1440.151,440.8 1436.887,440.8Q1433.623,440.8 1430.935,442.336Q1428.247,443.872 1426.647,446.816Q1425.047,449.76 1425.047,453.728Q1425.047,457.76 1426.647,460.736Q1428.247,463.712 1430.935,465.28Q1433.623,466.848 1436.887,466.848Q1440.151,466.848 1442.871,465.28Q1445.591,463.712 1447.191,460.736Q1448.791,457.76 1448.791,453.792Q1448.791,449.824 1447.191,446.88ZM1481.815,429.472Q1480.663,428.32 1480.663,426.656Q1480.663,424.992 1481.815,423.84Q1482.967,422.688 1484.631,422.688Q1486.231,422.688 1487.351,423.84Q1488.471,424.992 1488.471,426.656Q1488.471,428.32 1487.351,429.472Q1486.231,430.624 1484.631,430.624Q1482.967,430.624 1481.815,429.472M1487.447,436.32L1487.447,471.392L1481.623,471.392L1481.623,436.32L1487.447,436.32ZM1524.823,439.552Q1528.791,443.424 1528.791,450.72L1528.791,471.392L1523.031,471.392L1523.031,451.552Q1523.031,446.304 1520.407,443.52Q1517.783,440.736 1513.239,440.736Q1508.631,440.736 1505.911,443.616Q1503.191,446.496 1503.191,452L1503.191,471.392L1497.367,471.392L1497.367,436.32L1503.191,436.32L1503.191,441.312Q1504.919,438.624 1507.895,437.152Q1510.871,435.68 1514.455,435.68Q1520.855,435.68 1524.823,439.552Z" fill="#333333"/>
<path d="M1570.195,538.032Q1568.451,537.248 1567.459,535.856Q1566.467,534.464 1566.435,532.64L1569.539,532.64Q1569.699,534.208 1570.835,535.28Q1571.971,536.352 1574.147,536.352Q1576.227,536.352 1577.427,535.312Q1578.627,534.272 1578.627,532.64Q1578.627,531.36 1577.923,530.56Q1577.219,529.76 1576.163,529.344Q1575.107,528.928 1573.315,528.448Q1571.107,527.872 1569.779,527.296Q1568.451,526.72 1567.507,525.488Q1566.563,524.256 1566.563,522.176Q1566.563,520.352 1567.491,518.944Q1568.419,517.536 1570.099,516.768Q1571.779,516 1573.955,516Q1577.091,516 1579.091,517.568Q1581.091,519.136 1581.347,521.728L1578.147,521.728Q1577.987,520.448 1576.803,519.472Q1575.619,518.496 1573.667,518.496Q1571.843,518.496 1570.691,519.44Q1569.539,520.384 1569.539,522.08Q1569.539,523.296 1570.227,524.064Q1570.915,524.832 1571.923,525.232Q1572.931,525.632 1574.755,526.144Q1576.963,526.752 1578.307,527.344Q1579.651,527.936 1580.611,529.168Q1581.571,530.4 1581.571,532.512Q1581.571,534.144 1580.707,535.584Q1579.843,537.024 1578.147,537.92Q1576.451,538.816 1574.147,538.816Q1571.939,538.816 1570.195,538.032ZM1585.955,517.632Q1585.379,517.056 1585.379,516.224Q1585.379,515.392 1585.955,514.816Q1586.531,514.24 1587.363,514.24Q1588.163,514.24 1588.723,514.816Q1589.283,515.392 1589.283,516.224Q1589.283,517.056 1588.723,517.632Q1588.163,518.208 1587.363,518.208Q1586.531,518.208 1585.955,517.632M1588.771,521.056L1588.771,538.592L1585.859,538.592L1585.859,521.056L1588.771,521.056ZM1604.947,521.76Q1606.659,522.752 1607.491,524.256L1607.491,521.056L1610.435,521.056L1610.435,538.976Q1610.435,541.376 1609.411,543.248Q1608.387,545.12 1606.483,546.176Q1604.579,547.232 1602.051,547.232Q1598.595,547.232 1596.291,545.6Q1593.987,543.968 1593.571,541.152L1596.451,541.152Q1596.931,542.752 1598.435,543.728Q1599.939,544.704 1602.051,544.704Q1604.451,544.704 1605.971,543.2Q1607.491,541.696 1607.491,538.976L1607.491,535.296Q1606.627,536.832 1604.931,537.856Q1603.235,538.88 1600.963,538.88Q1598.627,538.88 1596.723,537.728Q1594.819,536.576 1593.731,534.496Q1592.643,532.416 1592.643,529.76Q1592.643,527.072 1593.731,525.04Q1594.819,523.008 1596.723,521.888Q1598.627,520.768 1600.963,520.768Q1603.235,520.768 1604.947,521.76M1606.691,526.336Q1605.891,524.864 1604.531,524.08Q1603.171,523.296 1601.539,523.296Q1599.907,523.296 1598.563,524.064Q1597.219,524.832 1596.419,526.304Q1595.619,527.776 1595.619,529.76Q1595.619,531.776 1596.419,533.264Q1597.219,534.752 1598.563,535.536Q1599.907,536.32 1601.539,536.32Q1603.171,536.32 1604.531,535.536Q1605.891,534.752 1606.691,533.264Q1607.491,531.776 1607.491,529.792Q1607.491,527.808 1606.691,526.336ZM1629.091,522.672Q1631.075,524.608 1631.075,528.256L1631.075,538.592L1628.195,538.592L1628.195,528.672Q1628.195,526.048 1626.883,524.656Q1625.571,523.264 1623.299,523.264Q1620.995,523.264 1619.635,524.704Q1618.275,526.144 1618.275,528.896L1618.275,538.592L1615.363,538.592L1615.363,521.056L1618.275,521.056L1618.275,523.552Q1619.139,522.208 1620.627,521.472Q1622.115,520.736 1623.907,520.736Q1627.107,520.736 1629.091,522.672ZM1659.939,521.056L1659.939,538.592L1657.027,538.592L1657.027,536Q1656.195,537.344 1654.707,538.096Q1653.219,538.848 1651.427,538.848Q1649.379,538.848 1647.747,538Q1646.115,537.152 1645.171,535.456Q1644.227,533.76 1644.227,531.328L1644.227,521.056L1647.107,521.056L1647.107,530.944Q1647.107,533.536 1648.419,534.928Q1649.731,536.32 1652.003,536.32Q1654.339,536.32 1655.683,534.88Q1657.027,533.44 1657.027,530.688L1657.027,521.056L1659.939,521.056ZM1670.355,521.776Q1672.067,520.768 1674.339,520.768Q1676.675,520.768 1678.579,521.888Q1680.483,523.008 1681.571,525.04Q1682.659,527.072 1682.659,529.76Q1682.659,532.416 1681.571,534.496Q1680.483,536.576 1678.579,537.728Q1676.675,538.88 1674.339,538.88Q1672.099,538.88 1670.387,537.872Q1668.675,536.864 1667.779,535.36L1667.779,546.912L1664.867,546.912L1664.867,521.056L1667.779,521.056L1667.779,524.288Q1668.643,522.784 1670.355,521.776M1678.883,526.304Q1678.083,524.832 1676.723,524.064Q1675.363,523.296 1673.731,523.296Q1672.131,523.296 1670.771,524.08Q1669.411,524.864 1668.595,526.352Q1667.779,527.84 1667.779,529.792Q1667.779,531.776 1668.595,533.264Q1669.411,534.752 1670.771,535.536Q1672.131,536.32 1673.731,536.32Q1675.363,536.32 1676.723,535.536Q1678.083,534.752 1678.883,533.264Q1679.683,531.776 1679.683,529.76Q1679.683,527.776 1678.883,526.304Z" fill="#111111"/>
<path d="M1213.307,517.648Q1215.979,519.008 1217.403,521.536Q1218.827,524.064 1218.827,527.488Q1218.827,530.912 1217.403,533.424Q1215.979,535.936 1213.307,537.264Q1210.635,538.592 1206.987,538.592L1200.043,538.592L1200.043,516.288L1206.987,516.288Q1210.635,516.288 1213.307,517.648M1213.579,533.904Q1215.851,531.616 1215.851,527.488Q1215.851,523.328 1213.563,520.992Q1211.275,518.656 1206.987,518.656L1202.955,518.656L1202.955,536.192L1206.987,536.192Q1211.307,536.192 1213.579,533.904ZM1225.851,537.76Q1223.851,536.64 1222.715,534.576Q1221.579,532.512 1221.579,529.792Q1221.579,527.104 1222.747,525.04Q1223.915,522.976 1225.931,521.872Q1227.947,520.768 1230.443,520.768Q1232.939,520.768 1234.955,521.872Q1236.971,522.976 1238.139,525.024Q1239.307,527.072 1239.307,529.792Q1239.307,532.512 1238.107,534.576Q1236.907,536.64 1234.859,537.76Q1232.811,538.88 1230.315,538.88Q1227.851,538.88 1225.851,537.76M1233.259,535.584Q1234.635,534.848 1235.483,533.376Q1236.331,531.904 1236.331,529.792Q1236.331,527.68 1235.499,526.208Q1234.667,524.736 1233.323,524.016Q1231.979,523.296 1230.411,523.296Q1228.811,523.296 1227.483,524.016Q1226.155,524.736 1225.355,526.208Q1224.555,527.68 1224.555,529.792Q1224.555,531.936 1225.339,533.408Q1226.123,534.88 1227.435,535.6Q1228.747,536.32 1230.315,536.32Q1231.883,536.32 1233.259,535.584ZM1256.875,522.672Q1258.859,524.608 1258.859,528.256L1258.859,538.592L1255.979,538.592L1255.979,528.672Q1255.979,526.048 1254.667,524.656Q1253.355,523.264 1251.083,523.264Q1248.779,523.264 1247.419,524.704Q1246.059,526.144 1246.059,528.896L1246.059,538.592L1243.147,538.592L1243.147,521.056L1246.059,521.056L1246.059,523.552Q1246.923,522.208 1248.411,521.472Q1249.899,520.736 1251.691,520.736Q1254.891,520.736 1256.875,522.672ZM1264.075,516.288L1267.307,516.288L1264.235,523.552L1262.187,523.552L1264.075,516.288ZM1274.187,523.456L1274.187,533.792Q1274.187,535.072 1274.731,535.6Q1275.275,536.128 1276.619,536.128L1278.763,536.128L1278.763,538.592L1276.139,538.592Q1273.707,538.592 1272.491,537.472Q1271.275,536.352 1271.275,533.792L1271.275,523.456L1269.003,523.456L1269.003,521.056L1271.275,521.056L1271.275,516.64L1274.187,516.64L1274.187,521.056L1278.763,521.056L1278.763,523.456L1274.187,523.456ZM1303.115,521.584Q1304.715,522.432 1305.627,524.128Q1306.539,525.824 1306.539,528.256L1306.539,538.592L1303.659,538.592L1303.659,528.672Q1303.659,526.048 1302.347,524.656Q1301.035,523.264 1298.763,523.264Q1296.459,523.264 1295.099,524.704Q1293.739,526.144 1293.739,528.896L1293.739,538.592L1290.827,538.592L1290.827,514.912L1293.739,514.912L1293.739,523.552Q1294.603,522.208 1296.123,521.472Q1297.643,520.736 1299.531,520.736Q1301.515,520.736 1303.115,521.584ZM1311.307,525.04Q1312.395,523.008 1314.299,521.888Q1316.203,520.768 1318.539,520.768Q1320.843,520.768 1322.539,521.76Q1324.235,522.752 1325.067,524.256L1325.067,521.056L1328.011,521.056L1328.011,538.592L1325.067,538.592L1325.067,535.328Q1324.203,536.864 1322.491,537.872Q1320.779,538.88 1318.507,538.88Q1316.171,538.88 1314.283,537.728Q1312.395,536.576 1311.307,534.496Q1310.219,532.416 1310.219,529.76Q1310.219,527.072 1311.307,525.04M1324.267,526.336Q1323.467,524.864 1322.107,524.08Q1320.747,523.296 1319.115,523.296Q1317.483,523.296 1316.139,524.064Q1314.795,524.832 1313.995,526.304Q1313.195,527.776 1313.195,529.76Q1313.195,531.776 1313.995,533.264Q1314.795,534.752 1316.139,535.536Q1317.483,536.32 1319.115,536.32Q1320.747,536.32 1322.107,535.536Q1323.467,534.752 1324.267,533.264Q1325.067,531.776 1325.067,529.792Q1325.067,527.808 1324.267,526.336ZM1339.467,535.904L1344.907,521.056L1348.011,521.056L1341.131,538.592L1337.739,538.592L1330.859,521.056L1333.995,521.056L1339.467,535.904ZM1366.795,530.912L1352.779,530.912Q1352.939,533.504 1354.555,534.96Q1356.171,536.416 1358.475,536.416Q1360.363,536.416 1361.627,535.536Q1362.891,534.656 1363.403,533.184L1366.539,533.184Q1365.835,535.712 1363.723,537.296Q1361.611,538.88 1358.475,538.88Q1355.979,538.88 1354.011,537.76Q1352.043,536.64 1350.923,534.576Q1349.803,532.512 1349.803,529.792Q1349.803,527.072 1350.891,525.024Q1351.979,522.976 1353.947,521.872Q1355.915,520.768 1358.475,520.768Q1360.971,520.768 1362.891,521.856Q1364.811,522.944 1365.851,524.848Q1366.891,526.752 1366.891,529.152Q1366.891,529.984 1366.795,530.912M1363.147,525.68Q1362.411,524.48 1361.147,523.856Q1359.883,523.232 1358.347,523.232Q1356.139,523.232 1354.587,524.64Q1353.035,526.048 1352.811,528.544L1363.883,528.544Q1363.883,526.88 1363.147,525.68ZM1379.275,525.04Q1380.363,523.008 1382.267,521.888Q1384.171,520.768 1386.507,520.768Q1388.811,520.768 1390.507,521.76Q1392.203,522.752 1393.035,524.256L1393.035,521.056L1395.979,521.056L1395.979,538.592L1393.035,538.592L1393.035,535.328Q1392.171,536.864 1390.459,537.872Q1388.747,538.88 1386.475,538.88Q1384.139,538.88 1382.251,537.728Q1380.363,536.576 1379.275,534.496Q1378.187,532.416 1378.187,529.76Q1378.187,527.072 1379.275,525.04M1392.235,526.336Q1391.435,524.864 1390.075,524.08Q1388.715,523.296 1387.083,523.296Q1385.451,523.296 1384.107,524.064Q1382.763,524.832 1381.963,526.304Q1381.163,527.776 1381.163,529.76Q1381.163,531.776 1381.963,533.264Q1382.763,534.752 1384.107,535.536Q1385.451,536.32 1387.083,536.32Q1388.715,536.32 1390.075,535.536Q1391.435,534.752 1392.235,533.264Q1393.035,531.776 1393.035,529.792Q1393.035,527.808 1392.235,526.336ZM1414.635,522.672Q1416.619,524.608 1416.619,528.256L1416.619,538.592L1413.739,538.592L1413.739,528.672Q1413.739,526.048 1412.427,524.656Q1411.115,523.264 1408.843,523.264Q1406.539,523.264 1405.179,524.704Q1403.819,526.144 1403.819,528.896L1403.819,538.592L1400.907,538.592L1400.907,521.056L1403.819,521.056L1403.819,523.552Q1404.683,522.208 1406.171,521.472Q1407.659,520.736 1409.451,520.736Q1412.651,520.736 1414.635,522.672ZM1429.931,525.04Q1431.019,523.008 1432.955,521.888Q1434.891,520.768 1437.387,520.768Q1440.619,520.768 1442.715,522.336Q1444.811,523.904 1445.483,526.688L1442.347,526.688Q1441.899,525.088 1440.603,524.16Q1439.307,523.232 1437.387,523.232Q1434.891,523.232 1433.355,524.944Q1431.819,526.656 1431.819,529.792Q1431.819,532.96 1433.355,534.688Q1434.891,536.416 1437.387,536.416Q1439.307,536.416 1440.587,535.52Q1441.867,534.624 1442.347,532.96L1445.483,532.96Q1444.779,535.648 1442.667,537.264Q1440.555,538.88 1437.387,538.88Q1434.891,538.88 1432.955,537.76Q1431.019,536.64 1429.931,534.592Q1428.843,532.544 1428.843,529.792Q1428.843,527.072 1429.931,525.04ZM1449.355,525.04Q1450.443,523.008 1452.379,521.888Q1454.315,520.768 1456.811,520.768Q1460.043,520.768 1462.139,522.336Q1464.235,523.904 1464.907,526.688L1461.771,526.688Q1461.323,525.088 1460.027,524.16Q1458.731,523.232 1456.811,523.232Q1454.315,523.232 1452.779,524.944Q1451.243,526.656 1451.243,529.792Q1451.243,532.96 1452.779,534.688Q1454.315,536.416 1456.811,536.416Q1458.731,536.416 1460.011,535.52Q1461.291,534.624 1461.771,532.96L1464.907,532.96Q1464.203,535.648 1462.091,537.264Q1459.979,538.88 1456.811,538.88Q1454.315,538.88 1452.379,537.76Q1450.443,536.64 1449.355,534.592Q1448.267,532.544 1448.267,529.792Q1448.267,527.072 1449.355,525.04ZM1471.963,537.76Q1469.963,536.64 1468.827,534.576Q1467.691,532.512 1467.691,529.792Q1467.691,527.104 1468.859,525.04Q1470.027,522.976 1472.043,521.872Q1474.059,520.768 1476.555,520.768Q1479.051,520.768 1481.067,521.872Q1483.083,522.976 1484.251,525.024Q1485.419,527.072 1485.419,529.792Q1485.419,532.512 1484.219,534.576Q1483.019,536.64 1480.971,537.76Q1478.923,538.88 1476.427,538.88Q1473.963,538.88 1471.963,537.76M1479.371,535.584Q1480.747,534.848 1481.595,533.376Q1482.443,531.904 1482.443,529.792Q1482.443,527.68 1481.611,526.208Q1480.779,524.736 1479.435,524.016Q1478.091,523.296 1476.523,523.296Q1474.923,523.296 1473.595,524.016Q1472.267,524.736 1471.467,526.208Q1470.667,527.68 1470.667,529.792Q1470.667,531.936 1471.451,533.408Q1472.235,534.88 1473.547,535.6Q1474.859,536.32 1476.427,536.32Q1477.995,536.32 1479.371,535.584ZM1504.811,521.056L1504.811,538.592L1501.899,538.592L1501.899,536Q1501.067,537.344 1499.579,538.096Q1498.091,538.848 1496.299,538.848Q1494.251,538.848 1492.619,538Q1490.987,537.152 1490.043,535.456Q1489.099,533.76 1489.099,531.328L1489.099,521.056L1491.979,521.056L1491.979,530.944Q1491.979,533.536 1493.291,534.928Q1494.603,536.32 1496.875,536.32Q1499.211,536.32 1500.555,534.88Q1501.899,533.44 1501.899,530.688L1501.899,521.056L1504.811,521.056ZM1523.467,522.672Q1525.451,524.608 1525.451,528.256L1525.451,538.592L1522.571,538.592L1522.571,528.672Q1522.571,526.048 1521.259,524.656Q1519.947,523.264 1517.675,523.264Q1515.371,523.264 1514.011,524.704Q1512.651,526.144 1512.651,528.896L1512.651,538.592L1509.739,538.592L1509.739,521.056L1512.651,521.056L1512.651,523.552Q1513.515,522.208 1515.003,521.472Q1516.491,520.736 1518.283,520.736Q1521.483,520.736 1523.467,522.672ZM1533.771,523.456L1533.771,533.792Q1533.771,535.072 1534.315,535.6Q1534.859,536.128 1536.203,536.128L1538.347,536.128L1538.347,538.592L1535.723,538.592Q1533.291,538.592 1532.075,537.472Q1530.859,536.352 1530.859,533.792L1530.859,523.456L1528.587,523.456L1528.587,521.056L1530.859,521.056L1530.859,516.64L1533.771,516.64L1533.771,521.056L1538.347,521.056L1538.347,523.456L1533.771,523.456ZM1552.683,517.792Q1554.635,519.584 1554.635,522.592Q1554.635,525.952 1552.555,527.568Q1550.475,529.184 1546.923,529.184L1546.827,532.224L1544.299,532.224L1544.171,527.168L1545.099,527.168Q1548.267,527.168 1550.059,526.208Q1551.851,525.248 1551.851,522.592Q1551.851,520.672 1550.699,519.552Q1549.547,518.432 1547.595,518.432Q1545.611,518.432 1544.475,519.504Q1543.339,520.576 1543.339,522.432L1540.587,522.432Q1540.587,520.512 1541.451,519.056Q1542.315,517.6 1543.899,516.8Q1545.483,516 1547.563,516Q1550.731,516 1552.683,517.792M1544.139,538.208Q1543.563,537.632 1543.563,536.8Q1543.563,535.968 1544.139,535.392Q1544.715,534.816 1545.547,534.816Q1546.347,534.816 1546.907,535.392Q1547.467,535.968 1547.467,536.8Q1547.467,537.632 1546.907,538.208Q1546.347,538.784 1545.547,538.784Q1544.715,538.784 1544.139,538.208Z" fill="#333333"/>
<path d="M1897.579,634.792L985.579,634.792C946.367,634.792 914.579,666.58 914.579,705.792C914.579,745.005 946.367,776.792 985.579,776.792L1897.579,776.792C1936.791,776.792 1968.579,745.005 1968.579,705.792C1968.579,666.58 1936.791,634.792 1897.579,634.792Z" fill="#FFFFFF"/>
<path d="M985.579,635.792L1897.579,635.792L1897.579,633.792L985.579,633.792L985.579,635.792ZM1897.579,635.792C1936.239,635.792 1967.579,667.132 1967.579,705.792L1969.579,705.792C1969.579,666.028 1937.343,633.792 1897.579,633.792L1897.579,635.792ZM1967.579,705.792C1967.579,744.452 1936.239,775.792 1897.579,775.792L1897.579,777.792C1937.343,777.792 1969.579,745.557 1969.579,705.792L1967.579,705.792ZM1897.579,775.792L985.579,775.792L985.579,777.792L1897.579,777.792L1897.579,775.792ZM985.579,775.792C946.919,775.792 915.579,744.452 915.579,705.792L913.579,705.792C913.579,745.557 945.814,777.792 985.579,777.792L985.579,775.792ZM915.579,705.792C915.579,667.132 946.919,635.792 985.579,635.792L985.579,633.792C945.814,633.792 913.579,666.028 913.579,705.792L915.579,705.792Z" fill="#333333"/>
<path d="M1212.579,734.792C1228.043,734.792 1240.579,722.256 1240.579,706.792C1240.579,691.328 1228.043,678.792 1212.579,678.792C1197.115,678.792 1184.579,691.328 1184.579,706.792C1184.579,722.256 1197.115,734.792 1212.579,734.792Z" fill="#0C82EE"/>
<path d="M1223.007,715.356L1224.251,707.452L1216.469,707.452L1216.469,702.326C1216.469,700.164 1217.555,698.054 1221.039,698.054L1224.579,698.054L1224.579,691.326C1224.579,691.326 1221.369,690.792 1218.299,690.792C1211.889,690.792 1207.703,694.578 1207.703,701.428L1207.703,707.452L1200.579,707.452L1200.579,715.356L1207.703,715.356L1207.703,734.46C1209.133,734.68 1210.595,734.792 1212.085,734.792C1213.577,734.792 1215.039,734.68 1216.469,734.46L1216.469,715.356L1223.007,715.356Z" fill="#FFFFFF"/>
<path d="M1280.455,719.366L1280.455,687.366L1284.329,687.366L1284.329,715.928L1299.205,715.928L1299.205,719.366L1280.455,719.366ZM1314.455,719.866Q1311.205,719.866 1308.759,718.318Q1306.313,716.772 1304.947,713.99Q1303.579,711.208 1303.579,707.49Q1303.579,703.74 1304.947,700.944Q1306.313,698.146 1308.759,696.6Q1311.205,695.052 1314.455,695.052Q1317.705,695.052 1320.149,696.6Q1322.595,698.146 1323.961,700.944Q1325.329,703.74 1325.329,707.49Q1325.329,711.208 1323.961,713.99Q1322.595,716.772 1320.149,718.318Q1317.705,719.866 1314.455,719.866M1314.455,716.552Q1316.923,716.552 1318.517,715.286Q1320.111,714.022 1320.875,711.958Q1321.641,709.896 1321.641,707.49Q1321.641,705.084 1320.875,703.006Q1320.111,700.928 1318.517,699.646Q1316.923,698.366 1314.455,698.366Q1311.985,698.366 1310.391,699.646Q1308.797,700.928 1308.033,703.006Q1307.267,705.084 1307.267,707.49Q1307.267,709.896 1308.033,711.958Q1308.797,714.022 1310.391,715.286Q1311.985,716.552 1314.455,716.552ZM1340.641,728.866Q1337.969,728.866 1336.047,728.186Q1334.125,727.506 1332.853,726.404Q1331.579,725.302 1330.829,724.052L1333.767,721.99Q1334.267,722.646 1335.033,723.498Q1335.797,724.35 1337.133,724.982Q1338.469,725.616 1340.641,725.616Q1343.547,725.616 1345.439,724.208Q1347.329,722.802 1347.329,719.802L1347.329,714.928L1347.017,714.928Q1346.611,715.584 1345.869,716.544Q1345.125,717.506 1343.743,718.248Q1342.361,718.99 1340.017,718.99Q1337.111,718.99 1334.805,717.616Q1332.501,716.24 1331.165,713.616Q1329.829,710.99 1329.829,707.24Q1329.829,703.552 1331.125,700.81Q1332.423,698.068 1334.735,696.56Q1337.047,695.052 1340.079,695.052Q1342.423,695.052 1343.805,695.826Q1345.189,696.6 1345.931,697.576Q1346.673,698.552 1347.079,699.178L1347.453,699.178L1347.453,695.366L1351.017,695.366L1351.017,720.052Q1351.017,723.146 1349.619,725.092Q1348.219,727.036 1345.869,727.95Q1343.517,728.866 1340.641,728.866M1340.517,715.678Q1342.735,715.678 1344.267,714.662Q1345.797,713.646 1346.595,711.74Q1347.391,709.834 1347.391,707.178Q1347.391,704.584 1346.611,702.6Q1345.829,700.616 1344.297,699.49Q1342.767,698.366 1340.517,698.366Q1338.173,698.366 1336.619,699.552Q1335.063,700.74 1334.289,702.74Q1333.517,704.74 1333.517,707.178Q1333.517,709.678 1334.305,711.592Q1335.095,713.506 1336.649,714.592Q1338.203,715.678 1340.517,715.678ZM1370.141,719.366L1370.141,695.366L1373.829,695.366L1373.829,719.366L1370.141,719.366M1372.017,691.366Q1370.939,691.366 1370.165,690.63Q1369.391,689.896 1369.391,688.866Q1369.391,687.834 1370.165,687.1Q1370.939,686.366 1372.017,686.366Q1373.095,686.366 1373.869,687.1Q1374.641,687.834 1374.641,688.866Q1374.641,689.896 1373.869,690.63Q1373.095,691.366 1372.017,691.366ZM1384.267,704.928L1384.267,719.366L1380.579,719.366L1380.579,695.366L1384.141,695.366L1384.141,699.116L1384.453,699.116Q1385.297,697.286 1387.017,696.17Q1388.735,695.052 1391.453,695.052Q1393.891,695.052 1395.719,696.044Q1397.547,697.036 1398.563,699.044Q1399.579,701.052 1399.579,704.116L1399.579,719.366L1395.891,719.366L1395.891,704.366Q1395.891,701.536 1394.423,699.95Q1392.953,698.366 1390.391,698.366Q1388.625,698.366 1387.243,699.13Q1385.861,699.896 1385.063,701.366Q1384.267,702.834 1384.267,704.928ZM1424.141,719.366L1416.829,695.366L1420.703,695.366L1425.891,713.74L1426.141,713.74L1431.267,695.366L1435.203,695.366L1440.267,713.678L1440.517,713.678L1445.703,695.366L1449.579,695.366L1442.267,719.366L1438.641,719.366L1433.391,700.928L1433.017,700.928L1427.767,719.366L1424.141,719.366ZM1454.453,719.366L1454.453,695.366L1458.141,695.366L1458.141,719.366L1454.453,719.366M1456.329,691.366Q1455.251,691.366 1454.477,690.63Q1453.703,689.896 1453.703,688.866Q1453.703,687.834 1454.477,687.1Q1455.251,686.366 1456.329,686.366Q1457.407,686.366 1458.181,687.1Q1458.953,687.834 1458.953,688.866Q1458.953,689.896 1458.181,690.63Q1457.407,691.366 1456.329,691.366ZM1475.329,695.366L1475.329,698.49L1462.891,698.49L1462.891,695.366L1475.329,695.366M1466.517,689.616L1470.203,689.616L1470.203,712.49Q1470.203,714.052 1470.665,714.826Q1471.125,715.6 1471.853,715.858Q1472.579,716.116 1473.391,716.116Q1474.001,716.116 1474.391,716.044Q1474.783,715.974 1475.017,715.928L1475.767,719.24Q1475.391,719.38 1474.719,719.53Q1474.047,719.678 1473.017,719.678Q1471.453,719.678 1469.961,719.006Q1468.469,718.334 1467.493,716.958Q1466.517,715.584 1466.517,713.49L1466.517,689.616ZM1485.079,704.928L1485.079,719.366L1481.391,719.366L1481.391,687.366L1485.079,687.366L1485.079,699.116L1485.391,699.116Q1486.235,697.256 1487.931,696.154Q1489.625,695.052 1492.453,695.052Q1494.907,695.052 1496.751,696.03Q1498.595,697.006 1499.617,699.014Q1500.641,701.022 1500.641,704.116L1500.641,719.366L1496.953,719.366L1496.953,704.366Q1496.953,701.506 1495.477,699.936Q1494.001,698.366 1491.391,698.366Q1489.579,698.366 1488.149,699.13Q1486.719,699.896 1485.899,701.366Q1485.079,702.834 1485.079,704.928ZM1520.267,719.366L1520.267,687.366L1539.453,687.366L1539.453,690.802L1524.141,690.802L1524.141,701.616L1538.017,701.616L1538.017,705.052L1524.141,705.052L1524.141,719.366L1520.267,719.366ZM1552.641,719.928Q1550.361,719.928 1548.501,719.06Q1546.641,718.194 1545.547,716.544Q1544.453,714.896 1544.453,712.552Q1544.453,710.49 1545.267,709.2Q1546.079,707.912 1547.439,707.178Q1548.797,706.444 1550.447,706.076Q1552.095,705.708 1553.767,705.49Q1555.953,705.208 1557.321,705.06Q1558.689,704.912 1559.321,704.552Q1559.953,704.194 1559.953,703.302L1559.953,703.178Q1559.953,700.866 1558.697,699.584Q1557.439,698.302 1554.891,698.302Q1552.251,698.302 1550.751,699.458Q1549.251,700.616 1548.641,701.928L1545.141,700.678Q1546.079,698.49 1547.649,697.264Q1549.219,696.036 1551.087,695.544Q1552.953,695.052 1554.767,695.052Q1555.923,695.052 1557.431,695.326Q1558.939,695.6 1560.353,696.444Q1561.767,697.286 1562.703,698.99Q1563.641,700.694 1563.641,703.552L1563.641,719.366L1559.953,719.366L1559.953,716.116L1559.767,716.116Q1559.391,716.896 1558.517,717.786Q1557.641,718.678 1556.189,719.302Q1554.735,719.928 1552.641,719.928M1553.203,716.616Q1555.391,716.616 1556.899,715.756Q1558.407,714.896 1559.181,713.536Q1559.953,712.178 1559.953,710.678L1559.953,707.302Q1559.719,707.584 1558.931,707.81Q1558.141,708.036 1557.117,708.2Q1556.095,708.366 1555.133,708.482Q1554.173,708.6 1553.579,708.678Q1552.141,708.866 1550.899,709.28Q1549.657,709.694 1548.899,710.514Q1548.141,711.334 1548.141,712.74Q1548.141,714.662 1549.571,715.638Q1551.001,716.616 1553.203,716.616ZM1580.141,719.866Q1576.767,719.866 1574.329,718.272Q1571.891,716.678 1570.579,713.88Q1569.267,711.084 1569.267,707.49Q1569.267,703.834 1570.617,701.03Q1571.969,698.224 1574.399,696.638Q1576.829,695.052 1580.079,695.052Q1582.611,695.052 1584.641,695.99Q1586.673,696.928 1587.969,698.616Q1589.267,700.302 1589.579,702.552L1585.891,702.552Q1585.469,700.912 1584.025,699.638Q1582.579,698.366 1580.141,698.366Q1577.985,698.366 1576.367,699.482Q1574.751,700.6 1573.853,702.622Q1572.953,704.646 1572.953,707.366Q1572.953,710.146 1573.837,712.208Q1574.719,714.272 1576.337,715.412Q1577.953,716.552 1580.141,716.552Q1581.579,716.552 1582.751,716.052Q1583.923,715.552 1584.735,714.616Q1585.547,713.678 1585.891,712.366L1589.579,712.366Q1589.267,714.49 1588.039,716.186Q1586.813,717.88 1584.805,718.872Q1582.797,719.866 1580.141,719.866ZM1605.017,719.866Q1601.547,719.866 1599.039,718.326Q1596.533,716.786 1595.181,714.014Q1593.829,711.24 1593.829,707.552Q1593.829,703.866 1595.181,701.044Q1596.533,698.224 1598.961,696.638Q1601.391,695.052 1604.641,695.052Q1606.517,695.052 1608.345,695.678Q1610.173,696.302 1611.673,697.7Q1613.173,699.1 1614.063,701.396Q1614.953,703.694 1614.953,707.052L1614.953,708.616L1596.453,708.616L1596.453,705.428L1611.203,705.428Q1611.203,703.396 1610.399,701.802Q1609.595,700.208 1608.117,699.286Q1606.641,698.366 1604.641,698.366Q1602.439,698.366 1600.837,699.45Q1599.235,700.536 1598.375,702.272Q1597.517,704.006 1597.517,705.99L1597.517,708.116Q1597.517,710.834 1598.461,712.716Q1599.407,714.6 1601.095,715.576Q1602.783,716.552 1605.017,716.552Q1606.469,716.552 1607.649,716.138Q1608.829,715.724 1609.689,714.888Q1610.547,714.052 1611.017,712.802L1614.579,713.802Q1614.017,715.616 1612.689,716.982Q1611.361,718.35 1609.407,719.108Q1607.453,719.866 1605.017,719.866ZM1621.079,719.366L1621.079,687.366L1624.767,687.366L1624.767,699.178L1625.079,699.178Q1625.485,698.552 1626.211,697.576Q1626.939,696.6 1628.305,695.826Q1629.673,695.052 1632.017,695.052Q1635.047,695.052 1637.361,696.568Q1639.673,698.084 1640.969,700.866Q1642.267,703.646 1642.267,707.428Q1642.267,711.24 1640.969,714.03Q1639.673,716.818 1637.375,718.342Q1635.079,719.866 1632.079,719.866Q1629.767,719.866 1628.375,719.092Q1626.985,718.318 1626.235,717.326Q1625.485,716.334 1625.079,715.678L1624.641,715.678L1624.641,719.366L1621.079,719.366M1624.703,707.366Q1624.703,710.084 1625.501,712.154Q1626.297,714.224 1627.829,715.388Q1629.361,716.552 1631.579,716.552Q1633.891,716.552 1635.447,715.326Q1637.001,714.1 1637.789,712.014Q1638.579,709.928 1638.579,707.366Q1638.579,704.834 1637.805,702.794Q1637.033,700.756 1635.477,699.56Q1633.923,698.366 1631.579,698.366Q1629.329,698.366 1627.797,699.498Q1626.267,700.63 1625.485,702.654Q1624.703,704.678 1624.703,707.366ZM1657.641,719.866Q1654.391,719.866 1651.947,718.318Q1649.501,716.772 1648.133,713.99Q1646.767,711.208 1646.767,707.49Q1646.767,703.74 1648.133,700.944Q1649.501,698.146 1651.947,696.6Q1654.391,695.052 1657.641,695.052Q1660.891,695.052 1663.337,696.6Q1665.783,698.146 1667.149,700.944Q1668.517,703.74 1668.517,707.49Q1668.517,711.208 1667.149,713.99Q1665.783,716.772 1663.337,718.318Q1660.891,719.866 1657.641,719.866M1657.641,716.552Q1660.111,716.552 1661.703,715.286Q1663.297,714.022 1664.063,711.958Q1664.829,709.896 1664.829,707.49Q1664.829,705.084 1664.063,703.006Q1663.297,700.928 1661.703,699.646Q1660.111,698.366 1657.641,698.366Q1655.173,698.366 1653.579,699.646Q1651.985,700.928 1651.219,703.006Q1650.453,705.084 1650.453,707.49Q1650.453,709.896 1651.219,711.958Q1651.985,714.022 1653.579,715.286Q1655.173,716.552 1657.641,716.552ZM1683.891,719.866Q1680.641,719.866 1678.197,718.318Q1675.751,716.772 1674.383,713.99Q1673.017,711.208 1673.017,707.49Q1673.017,703.74 1674.383,700.944Q1675.751,698.146 1678.197,696.6Q1680.641,695.052 1683.891,695.052Q1687.141,695.052 1689.587,696.6Q1692.033,698.146 1693.399,700.944Q1694.767,703.74 1694.767,707.49Q1694.767,711.208 1693.399,713.99Q1692.033,716.772 1689.587,718.318Q1687.141,719.866 1683.891,719.866M1683.891,716.552Q1686.361,716.552 1687.953,715.286Q1689.547,714.022 1690.313,711.958Q1691.079,709.896 1691.079,707.49Q1691.079,705.084 1690.313,703.006Q1689.547,700.928 1687.953,699.646Q1686.361,698.366 1683.891,698.366Q1681.423,698.366 1679.829,699.646Q1678.235,700.928 1677.469,703.006Q1676.703,705.084 1676.703,707.49Q1676.703,709.896 1677.469,711.958Q1678.235,714.022 1679.829,715.286Q1681.423,716.552 1683.891,716.552ZM1703.829,710.616L1703.767,706.052L1704.517,706.052L1715.017,695.366L1719.579,695.366L1708.391,706.678L1708.079,706.678L1703.829,710.616M1700.391,719.366L1700.391,687.366L1704.079,687.366L1704.079,719.366L1700.391,719.366M1715.641,719.366L1706.267,707.49L1708.891,704.928L1720.329,719.366L1715.641,719.366Z" fill="#333333"/>
<path d="M1897.579,810.792L985.579,810.792C946.367,810.792 914.579,842.58 914.579,881.792C914.579,921.005 946.367,952.792 985.579,952.792L1897.579,952.792C1936.791,952.792 1968.579,921.005 1968.579,881.792C1968.579,842.58 1936.791,810.792 1897.579,810.792Z" fill="#FFFFFF"/>
<path d="M985.579,811.792L1897.579,811.792L1897.579,809.792L985.579,809.792L985.579,811.792ZM1897.579,811.792C1936.239,811.792 1967.579,843.132 1967.579,881.792L1969.579,881.792C1969.579,842.028 1937.343,809.792 1897.579,809.792L1897.579,811.792ZM1967.579,881.792C1967.579,920.452 1936.239,951.792 1897.579,951.792L1897.579,953.792C1937.343,953.792 1969.579,921.557 1969.579,881.792L1967.579,881.792ZM1897.579,951.792L985.579,951.792L985.579,953.792L1897.579,953.792L1897.579,951.792ZM985.579,951.792C946.919,951.792 915.579,920.452 915.579,881.792L913.579,881.792C913.579,921.557 945.814,953.792 985.579,953.792L985.579,951.792ZM915.579,881.792C915.579,843.132 946.919,811.792 985.579,811.792L985.579,809.792C945.814,809.792 913.579,842.028 913.579,881.792L915.579,881.792Z" fill="#333333"/>
<path d="M1257.581,881.258C1257.581,879.532 1257.437,878.272 1257.127,876.966L1237.009,876.966L1237.009,884.758L1248.819,884.758C1248.581,886.696 1247.295,889.612 1244.437,891.572L1244.397,891.832L1250.759,896.662L1251.199,896.706C1255.247,893.042 1257.581,887.652 1257.581,881.258Z" fill="#4285F4"/>
<path d="M1237.007,901.792C1242.793,901.792 1247.649,899.926 1251.197,896.706L1244.435,891.572C1242.625,892.808 1240.197,893.672 1237.007,893.672C1231.341,893.672 1226.531,890.008 1224.817,884.946L1224.565,884.966L1217.951,889.982L1217.865,890.218C1221.387,897.078 1228.625,901.792 1237.007,901.792Z" fill="#34A853"/>
<path d="M1224.821,884.946C1224.369,883.638 1224.107,882.238 1224.107,880.792C1224.107,879.346 1224.369,877.946 1224.797,876.638L1224.785,876.36L1218.087,871.264L1217.869,871.366C1216.417,874.212 1215.583,877.408 1215.583,880.792C1215.583,884.176 1216.417,887.372 1217.869,890.218L1224.821,884.946Z" fill="#FBBC05"/>
<path d="M1237.007,867.912C1241.031,867.912 1243.745,869.616 1245.293,871.038L1251.341,865.252C1247.627,861.868 1242.793,859.792 1237.007,859.792C1228.627,859.792 1221.387,864.506 1217.865,871.366L1224.793,876.638C1226.531,871.576 1231.341,867.912 1237.007,867.912Z" fill="#EB4335"/>
<path d="M1296.455,893.366L1296.455,861.366L1300.329,861.366L1300.329,889.928L1315.205,889.928L1315.205,893.366L1296.455,893.366ZM1330.455,893.866Q1327.205,893.866 1324.759,892.318Q1322.313,890.772 1320.947,887.99Q1319.579,885.208 1319.579,881.49Q1319.579,877.74 1320.947,874.944Q1322.313,872.146 1324.759,870.6Q1327.205,869.052 1330.455,869.052Q1333.705,869.052 1336.149,870.6Q1338.595,872.146 1339.961,874.944Q1341.329,877.74 1341.329,881.49Q1341.329,885.208 1339.961,887.99Q1338.595,890.772 1336.149,892.318Q1333.705,893.866 1330.455,893.866M1330.455,890.552Q1332.923,890.552 1334.517,889.286Q1336.111,888.022 1336.875,885.958Q1337.641,883.896 1337.641,881.49Q1337.641,879.084 1336.875,877.006Q1336.111,874.928 1334.517,873.646Q1332.923,872.366 1330.455,872.366Q1327.985,872.366 1326.391,873.646Q1324.797,874.928 1324.033,877.006Q1323.267,879.084 1323.267,881.49Q1323.267,883.896 1324.033,885.958Q1324.797,888.022 1326.391,889.286Q1327.985,890.552 1330.455,890.552ZM1356.641,902.866Q1353.969,902.866 1352.047,902.186Q1350.125,901.506 1348.853,900.404Q1347.579,899.302 1346.829,898.052L1349.767,895.99Q1350.267,896.646 1351.033,897.498Q1351.797,898.35 1353.133,898.982Q1354.469,899.616 1356.641,899.616Q1359.547,899.616 1361.439,898.208Q1363.329,896.802 1363.329,893.802L1363.329,888.928L1363.017,888.928Q1362.611,889.584 1361.869,890.544Q1361.125,891.506 1359.743,892.248Q1358.361,892.99 1356.017,892.99Q1353.111,892.99 1350.805,891.616Q1348.501,890.24 1347.165,887.616Q1345.829,884.99 1345.829,881.24Q1345.829,877.552 1347.125,874.81Q1348.423,872.068 1350.735,870.56Q1353.047,869.052 1356.079,869.052Q1358.423,869.052 1359.805,869.826Q1361.189,870.6 1361.931,871.576Q1362.673,872.552 1363.079,873.178L1363.453,873.178L1363.453,869.366L1367.017,869.366L1367.017,894.052Q1367.017,897.146 1365.619,899.092Q1364.219,901.036 1361.869,901.95Q1359.517,902.866 1356.641,902.866M1356.517,889.678Q1358.735,889.678 1360.267,888.662Q1361.797,887.646 1362.595,885.74Q1363.391,883.834 1363.391,881.178Q1363.391,878.584 1362.611,876.6Q1361.829,874.616 1360.297,873.49Q1358.767,872.366 1356.517,872.366Q1354.173,872.366 1352.619,873.552Q1351.063,874.74 1350.289,876.74Q1349.517,878.74 1349.517,881.178Q1349.517,883.678 1350.305,885.592Q1351.095,887.506 1352.649,888.592Q1354.203,889.678 1356.517,889.678ZM1386.141,893.366L1386.141,869.366L1389.829,869.366L1389.829,893.366L1386.141,893.366M1388.017,865.366Q1386.939,865.366 1386.165,864.63Q1385.391,863.896 1385.391,862.866Q1385.391,861.834 1386.165,861.1Q1386.939,860.366 1388.017,860.366Q1389.095,860.366 1389.869,861.1Q1390.641,861.834 1390.641,862.866Q1390.641,863.896 1389.869,864.63Q1389.095,865.366 1388.017,865.366ZM1400.267,878.928L1400.267,893.366L1396.579,893.366L1396.579,869.366L1400.141,869.366L1400.141,873.116L1400.453,873.116Q1401.297,871.286 1403.017,870.17Q1404.735,869.052 1407.453,869.052Q1409.891,869.052 1411.719,870.044Q1413.547,871.036 1414.563,873.044Q1415.579,875.052 1415.579,878.116L1415.579,893.366L1411.891,893.366L1411.891,878.366Q1411.891,875.536 1410.423,873.95Q1408.953,872.366 1406.391,872.366Q1404.625,872.366 1403.243,873.13Q1401.861,873.896 1401.063,875.366Q1400.267,876.834 1400.267,878.928ZM1440.141,893.366L1432.829,869.366L1436.703,869.366L1441.891,887.74L1442.141,887.74L1447.267,869.366L1451.203,869.366L1456.267,887.678L1456.517,887.678L1461.703,869.366L1465.579,869.366L1458.267,893.366L1454.641,893.366L1449.391,874.928L1449.017,874.928L1443.767,893.366L1440.141,893.366ZM1470.453,893.366L1470.453,869.366L1474.141,869.366L1474.141,893.366L1470.453,893.366M1472.329,865.366Q1471.251,865.366 1470.477,864.63Q1469.703,863.896 1469.703,862.866Q1469.703,861.834 1470.477,861.1Q1471.251,860.366 1472.329,860.366Q1473.407,860.366 1474.181,861.1Q1474.953,861.834 1474.953,862.866Q1474.953,863.896 1474.181,864.63Q1473.407,865.366 1472.329,865.366ZM1491.329,869.366L1491.329,872.49L1478.891,872.49L1478.891,869.366L1491.329,869.366M1482.517,863.616L1486.203,863.616L1486.203,886.49Q1486.203,888.052 1486.665,888.826Q1487.125,889.6 1487.853,889.858Q1488.579,890.116 1489.391,890.116Q1490.001,890.116 1490.391,890.044Q1490.783,889.974 1491.017,889.928L1491.767,893.24Q1491.391,893.38 1490.719,893.53Q1490.047,893.678 1489.017,893.678Q1487.453,893.678 1485.961,893.006Q1484.469,892.334 1483.493,890.958Q1482.517,889.584 1482.517,887.49L1482.517,863.616ZM1501.079,878.928L1501.079,893.366L1497.391,893.366L1497.391,861.366L1501.079,861.366L1501.079,873.116L1501.391,873.116Q1502.235,871.256 1503.931,870.154Q1505.625,869.052 1508.453,869.052Q1510.907,869.052 1512.751,870.03Q1514.595,871.006 1515.617,873.014Q1516.641,875.022 1516.641,878.116L1516.641,893.366L1512.953,893.366L1512.953,878.366Q1512.953,875.506 1511.477,873.936Q1510.001,872.366 1507.391,872.366Q1505.579,872.366 1504.149,873.13Q1502.719,873.896 1501.899,875.366Q1501.079,876.834 1501.079,878.928ZM1558.141,871.366Q1557.625,869.786 1556.789,868.53Q1555.953,867.272 1554.805,866.38Q1553.657,865.49 1552.203,865.022Q1550.751,864.552 1549.017,864.552Q1546.173,864.552 1543.845,866.022Q1541.517,867.49 1540.141,870.35Q1538.767,873.208 1538.767,877.366Q1538.767,881.522 1540.157,884.38Q1541.547,887.24 1543.923,888.708Q1546.297,890.178 1549.267,890.178Q1552.017,890.178 1554.117,888.998Q1556.219,887.818 1557.399,885.654Q1558.579,883.49 1558.579,880.552L1559.767,880.802L1550.141,880.802L1550.141,877.366L1562.329,877.366L1562.329,880.802Q1562.329,884.756 1560.649,887.678Q1558.969,890.6 1556.025,892.2Q1553.079,893.802 1549.267,893.802Q1545.017,893.802 1541.805,891.802Q1538.595,889.802 1536.805,886.116Q1535.017,882.428 1535.017,877.366Q1535.017,873.568 1536.039,870.53Q1537.063,867.49 1538.939,865.35Q1540.813,863.208 1543.375,862.068Q1545.939,860.928 1549.017,860.928Q1551.547,860.928 1553.743,861.686Q1555.939,862.444 1557.665,863.826Q1559.391,865.208 1560.547,867.122Q1561.703,869.036 1562.141,871.366L1558.141,871.366ZM1578.203,893.866Q1574.953,893.866 1572.509,892.318Q1570.063,890.772 1568.697,887.99Q1567.329,885.208 1567.329,881.49Q1567.329,877.74 1568.697,874.944Q1570.063,872.146 1572.509,870.6Q1574.953,869.052 1578.203,869.052Q1581.453,869.052 1583.899,870.6Q1586.345,872.146 1587.711,874.944Q1589.079,877.74 1589.079,881.49Q1589.079,885.208 1587.711,887.99Q1586.345,890.772 1583.899,892.318Q1581.453,893.866 1578.203,893.866M1578.203,890.552Q1580.673,890.552 1582.267,889.286Q1583.861,888.022 1584.625,885.958Q1585.391,883.896 1585.391,881.49Q1585.391,879.084 1584.625,877.006Q1583.861,874.928 1582.267,873.646Q1580.673,872.366 1578.203,872.366Q1575.735,872.366 1574.141,873.646Q1572.547,874.928 1571.783,877.006Q1571.017,879.084 1571.017,881.49Q1571.017,883.896 1571.783,885.958Q1572.547,888.022 1574.141,889.286Q1575.735,890.552 1578.203,890.552ZM1604.453,893.866Q1601.203,893.866 1598.759,892.318Q1596.313,890.772 1594.947,887.99Q1593.579,885.208 1593.579,881.49Q1593.579,877.74 1594.947,874.944Q1596.313,872.146 1598.759,870.6Q1601.203,869.052 1604.453,869.052Q1607.703,869.052 1610.149,870.6Q1612.595,872.146 1613.961,874.944Q1615.329,877.74 1615.329,881.49Q1615.329,885.208 1613.961,887.99Q1612.595,890.772 1610.149,892.318Q1607.703,893.866 1604.453,893.866M1604.453,890.552Q1606.923,890.552 1608.517,889.286Q1610.111,888.022 1610.875,885.958Q1611.641,883.896 1611.641,881.49Q1611.641,879.084 1610.875,877.006Q1610.111,874.928 1608.517,873.646Q1606.923,872.366 1604.453,872.366Q1601.985,872.366 1600.391,873.646Q1598.797,874.928 1598.033,877.006Q1597.267,879.084 1597.267,881.49Q1597.267,883.896 1598.033,885.958Q1598.797,888.022 1600.391,889.286Q1601.985,890.552 1604.453,890.552ZM1630.641,902.866Q1627.969,902.866 1626.047,902.186Q1624.125,901.506 1622.853,900.404Q1621.579,899.302 1620.829,898.052L1623.767,895.99Q1624.267,896.646 1625.033,897.498Q1625.797,898.35 1627.133,898.982Q1628.469,899.616 1630.641,899.616Q1633.547,899.616 1635.439,898.208Q1637.329,896.802 1637.329,893.802L1637.329,888.928L1637.017,888.928Q1636.611,889.584 1635.867,890.544Q1635.125,891.506 1633.743,892.248Q1632.361,892.99 1630.017,892.99Q1627.111,892.99 1624.805,891.616Q1622.501,890.24 1621.165,887.616Q1619.829,884.99 1619.829,881.24Q1619.829,877.552 1621.125,874.81Q1622.423,872.068 1624.735,870.56Q1627.047,869.052 1630.079,869.052Q1632.423,869.052 1633.805,869.826Q1635.189,870.6 1635.931,871.576Q1636.673,872.552 1637.079,873.178L1637.453,873.178L1637.453,869.366L1641.017,869.366L1641.017,894.052Q1641.017,897.146 1639.617,899.092Q1638.219,901.036 1635.867,901.95Q1633.517,902.866 1630.641,902.866M1630.517,889.678Q1632.735,889.678 1634.267,888.662Q1635.797,887.646 1636.595,885.74Q1637.391,883.834 1637.391,881.178Q1637.391,878.584 1636.611,876.6Q1635.829,874.616 1634.297,873.49Q1632.767,872.366 1630.517,872.366Q1628.173,872.366 1626.617,873.552Q1625.063,874.74 1624.289,876.74Q1623.517,878.74 1623.517,881.178Q1623.517,883.678 1624.305,885.592Q1625.095,887.506 1626.649,888.592Q1628.203,889.678 1630.517,889.678ZM1651.453,861.366L1651.453,893.366L1647.767,893.366L1647.767,861.366L1651.453,861.366ZM1668.267,893.866Q1664.797,893.866 1662.289,892.326Q1659.781,890.786 1658.431,888.014Q1657.079,885.24 1657.079,881.552Q1657.079,877.866 1658.431,875.044Q1659.781,872.224 1662.211,870.638Q1664.641,869.052 1667.891,869.052Q1669.767,869.052 1671.595,869.678Q1673.423,870.302 1674.923,871.7Q1676.423,873.1 1677.313,875.396Q1678.203,877.694 1678.203,881.052L1678.203,882.616L1659.703,882.616L1659.703,879.428L1674.453,879.428Q1674.453,877.396 1673.649,875.802Q1672.845,874.208 1671.367,873.286Q1669.891,872.366 1667.891,872.366Q1665.689,872.366 1664.087,873.45Q1662.485,874.536 1661.625,876.272Q1660.767,878.006 1660.767,879.99L1660.767,882.116Q1660.767,884.834 1661.711,886.716Q1662.657,888.6 1664.345,889.576Q1666.031,890.552 1668.267,890.552Q1669.719,890.552 1670.899,890.138Q1672.079,889.724 1672.939,888.888Q1673.797,888.052 1674.267,886.802L1677.829,887.802Q1677.267,889.616 1675.939,890.982Q1674.611,892.35 1672.657,893.108Q1670.703,893.866 1668.267,893.866Z" fill="#333333"/>
<path d="M1360.579,1064.792L913.579,1064.792L913.579,1068.792L1360.579,1068.792L1360.579,1064.792Z" fill="#666666" fill-opacity="0.25"/>
<path d="M1440.261,1063.054Q1440.261,1068.576 1438.267,1072.598Q1436.273,1076.622 1432.795,1078.804Q1429.317,1080.986 1424.851,1080.986Q1420.385,1080.986 1416.909,1078.804Q1413.431,1076.622 1411.437,1072.598Q1409.443,1068.576 1409.443,1063.054Q1409.443,1057.53 1411.437,1053.508Q1413.431,1049.486 1416.909,1047.304Q1420.385,1045.122 1424.851,1045.122Q1429.317,1045.122 1432.795,1047.304Q1436.273,1049.486 1438.267,1053.508Q1440.261,1057.53 1440.261,1063.054M1436.169,1063.054Q1436.169,1058.52 1434.661,1055.4Q1433.153,1052.28 1430.587,1050.678Q1428.023,1049.076 1424.851,1049.076Q1421.681,1049.076 1419.115,1050.678Q1416.551,1052.28 1415.043,1055.4Q1413.533,1058.52 1413.533,1063.054Q1413.533,1067.588 1415.043,1070.706Q1416.551,1073.826 1419.115,1075.428Q1421.681,1077.03 1424.851,1077.03Q1428.023,1077.03 1430.587,1075.428Q1433.153,1073.826 1434.661,1070.706Q1436.169,1067.588 1436.169,1063.054ZM1447.351,1080.508L1447.351,1045.598L1459.147,1045.598Q1463.239,1045.598 1465.863,1046.988Q1468.489,1048.378 1469.749,1050.798Q1471.011,1053.218 1471.011,1056.304Q1471.011,1059.388 1469.749,1061.776Q1468.489,1064.162 1465.881,1065.516Q1463.273,1066.872 1459.215,1066.872L1449.669,1066.872L1449.669,1063.054L1459.079,1063.054Q1461.875,1063.054 1463.587,1062.236Q1465.301,1061.418 1466.077,1059.908Q1466.851,1058.4 1466.851,1056.304Q1466.851,1054.206 1466.067,1052.638Q1465.283,1051.07 1463.561,1050.21Q1461.841,1049.348 1459.011,1049.348L1451.579,1049.348L1451.579,1080.508L1447.351,1080.508M1463.783,1064.826L1472.375,1080.508L1467.465,1080.508L1459.011,1064.826L1463.783,1064.826Z" fill="#666666"/>
<path d="M1969.579,1064.792L1522.579,1064.792L1522.579,1068.792L1969.579,1068.792L1969.579,1064.792Z" fill="#666666" fill-opacity="0.25"/>
<path d="M931.659,1194.288L924.395,1208.176L924.395,1216.592L921.483,1216.592L921.483,1208.176L914.187,1194.288L917.419,1194.288L922.923,1205.584L928.427,1194.288L931.659,1194.288ZM937.915,1215.76Q935.915,1214.64 934.779,1212.576Q933.643,1210.512 933.643,1207.792Q933.643,1205.104 934.811,1203.04Q935.979,1200.976 937.995,1199.872Q940.011,1198.768 942.507,1198.768Q945.003,1198.768 947.019,1199.872Q949.035,1200.976 950.203,1203.024Q951.371,1205.072 951.371,1207.792Q951.371,1210.512 950.171,1212.576Q948.971,1214.64 946.923,1215.76Q944.875,1216.88 942.379,1216.88Q939.915,1216.88 937.915,1215.76M945.323,1213.584Q946.699,1212.848 947.547,1211.376Q948.395,1209.904 948.395,1207.792Q948.395,1205.68 947.563,1204.208Q946.731,1202.736 945.387,1202.016Q944.043,1201.296 942.475,1201.296Q940.875,1201.296 939.547,1202.016Q938.219,1202.736 937.419,1204.208Q936.619,1205.68 936.619,1207.792Q936.619,1209.936 937.403,1211.408Q938.187,1212.88 939.499,1213.6Q940.811,1214.32 942.379,1214.32Q943.947,1214.32 945.323,1213.584ZM970.763,1199.056L970.763,1216.592L967.851,1216.592L967.851,1214Q967.019,1215.344 965.531,1216.096Q964.043,1216.848 962.251,1216.848Q960.203,1216.848 958.571,1216Q956.939,1215.152 955.995,1213.456Q955.051,1211.76 955.051,1209.328L955.051,1199.056L957.931,1199.056L957.931,1208.944Q957.931,1211.536 959.243,1212.928Q960.555,1214.32 962.827,1214.32Q965.163,1214.32 966.507,1212.88Q967.851,1211.44 967.851,1208.688L967.851,1199.056L970.763,1199.056ZM980.795,1199.568Q982.219,1198.736 984.267,1198.736L984.267,1201.744L983.499,1201.744Q978.603,1201.744 978.603,1207.056L978.603,1216.592L975.691,1216.592L975.691,1199.056L978.603,1199.056L978.603,1201.904Q979.371,1200.4 980.795,1199.568ZM1012.075,1208.912L998.059,1208.912Q998.219,1211.504 999.835,1212.96Q1001.451,1214.416 1003.755,1214.416Q1005.643,1214.416 1006.907,1213.536Q1008.171,1212.656 1008.683,1211.184L1011.819,1211.184Q1011.115,1213.712 1009.003,1215.296Q1006.891,1216.88 1003.755,1216.88Q1001.259,1216.88 999.291,1215.76Q997.323,1214.64 996.203,1212.576Q995.083,1210.512 995.083,1207.792Q995.083,1205.072 996.171,1203.024Q997.259,1200.976 999.227,1199.872Q1001.195,1198.768 1003.755,1198.768Q1006.251,1198.768 1008.171,1199.856Q1010.091,1200.944 1011.131,1202.848Q1012.171,1204.752 1012.171,1207.152Q1012.171,1207.984 1012.075,1208.912M1008.427,1203.68Q1007.691,1202.48 1006.427,1201.856Q1005.163,1201.232 1003.627,1201.232Q1001.419,1201.232 999.867,1202.64Q998.315,1204.048 998.091,1206.544L1009.163,1206.544Q1009.163,1204.88 1008.427,1203.68ZM1040.747,1199.584Q1042.347,1200.432 1043.275,1202.128Q1044.203,1203.824 1044.203,1206.256L1044.203,1216.592L1041.323,1216.592L1041.323,1206.672Q1041.323,1204.048 1040.027,1202.656Q1038.731,1201.264 1036.523,1201.264Q1034.251,1201.264 1032.907,1202.72Q1031.563,1204.176 1031.563,1206.928L1031.563,1216.592L1028.683,1216.592L1028.683,1206.672Q1028.683,1204.048 1027.387,1202.656Q1026.091,1201.264 1023.883,1201.264Q1021.611,1201.264 1020.267,1202.72Q1018.923,1204.176 1018.923,1206.928L1018.923,1216.592L1016.011,1216.592L1016.011,1199.056L1018.923,1199.056L1018.923,1201.584Q1019.787,1200.208 1021.243,1199.472Q1022.699,1198.736 1024.459,1198.736Q1026.667,1198.736 1028.363,1199.728Q1030.059,1200.72 1030.891,1202.64Q1031.627,1200.784 1033.323,1199.76Q1035.019,1198.736 1037.099,1198.736Q1039.147,1198.736 1040.747,1199.584ZM1048.971,1203.04Q1050.059,1201.008 1051.963,1199.888Q1053.867,1198.768 1056.203,1198.768Q1058.507,1198.768 1060.203,1199.76Q1061.899,1200.752 1062.731,1202.256L1062.731,1199.056L1065.675,1199.056L1065.675,1216.592L1062.731,1216.592L1062.731,1213.328Q1061.867,1214.864 1060.155,1215.872Q1058.443,1216.88 1056.171,1216.88Q1053.835,1216.88 1051.947,1215.728Q1050.059,1214.576 1048.971,1212.496Q1047.883,1210.416 1047.883,1207.76Q1047.883,1205.072 1048.971,1203.04M1061.931,1204.336Q1061.131,1202.864 1059.771,1202.08Q1058.411,1201.296 1056.779,1201.296Q1055.147,1201.296 1053.803,1202.064Q1052.459,1202.832 1051.659,1204.304Q1050.859,1205.776 1050.859,1207.76Q1050.859,1209.776 1051.659,1211.264Q1052.459,1212.752 1053.803,1213.536Q1055.147,1214.32 1056.779,1214.32Q1058.411,1214.32 1059.771,1213.536Q1061.131,1212.752 1061.931,1211.264Q1062.731,1209.776 1062.731,1207.792Q1062.731,1205.808 1061.931,1204.336ZM1070.699,1195.632Q1070.123,1195.056 1070.123,1194.224Q1070.123,1193.392 1070.699,1192.816Q1071.275,1192.24 1072.107,1192.24Q1072.907,1192.24 1073.467,1192.816Q1074.027,1193.392 1074.027,1194.224Q1074.027,1195.056 1073.467,1195.632Q1072.907,1196.208 1072.107,1196.208Q1071.275,1196.208 1070.699,1195.632M1073.515,1199.056L1073.515,1216.592L1070.603,1216.592L1070.603,1199.056L1073.515,1199.056ZM1081.387,1192.912L1081.387,1216.592L1078.475,1216.592L1078.475,1192.912L1081.387,1192.912Z" fill="#666666"/>
<path d="M937.579,1243.792L1945.579,1243.792L1945.579,1241.792L937.579,1241.792L937.579,1243.792ZM1945.579,1243.792C1957.729,1243.792 1967.579,1253.642 1967.579,1265.792L1969.579,1265.792C1969.579,1252.538 1958.833,1241.792 1945.579,1241.792L1945.579,1243.792ZM1967.579,1265.792L1967.579,1329.792L1969.579,1329.792L1969.579,1265.792L1967.579,1265.792ZM1967.579,1329.792C1967.579,1341.943 1957.729,1351.792 1945.579,1351.792L1945.579,1353.792C1958.833,1353.792 1969.579,1343.047 1969.579,1329.792L1967.579,1329.792ZM1945.579,1351.792L937.579,1351.792L937.579,1353.792L1945.579,1353.792L1945.579,1351.792ZM937.579,1351.792C925.428,1351.792 915.579,1341.943 915.579,1329.792L913.579,1329.792C913.579,1343.047 924.324,1353.792 937.579,1353.792L937.579,1351.792ZM915.579,1329.792L915.579,1265.792L913.579,1265.792L913.579,1329.792L915.579,1329.792ZM915.579,1265.792C915.579,1253.642 925.428,1243.792 937.579,1243.792L937.579,1241.792C924.324,1241.792 913.579,1252.538 913.579,1265.792L915.579,1265.792Z" fill="#666666" fill-opacity="0.35"/>
<path d="M931.659,1416.288L924.395,1430.176L924.395,1438.592L921.483,1438.592L921.483,1430.176L914.187,1416.288L917.419,1416.288L922.923,1427.584L928.427,1416.288L931.659,1416.288ZM937.915,1437.76Q935.915,1436.64 934.779,1434.576Q933.643,1432.512 933.643,1429.792Q933.643,1427.104 934.811,1425.04Q935.979,1422.976 937.995,1421.872Q940.011,1420.768 942.507,1420.768Q945.003,1420.768 947.019,1421.872Q949.035,1422.976 950.203,1425.024Q951.371,1427.072 951.371,1429.792Q951.371,1432.512 950.171,1434.576Q948.971,1436.64 946.923,1437.76Q944.875,1438.88 942.379,1438.88Q939.915,1438.88 937.915,1437.76M945.323,1435.584Q946.699,1434.848 947.547,1433.376Q948.395,1431.904 948.395,1429.792Q948.395,1427.68 947.563,1426.208Q946.731,1424.736 945.387,1424.016Q944.043,1423.296 942.475,1423.296Q940.875,1423.296 939.547,1424.016Q938.219,1424.736 937.419,1426.208Q936.619,1427.68 936.619,1429.792Q936.619,1431.936 937.403,1433.408Q938.187,1434.88 939.499,1435.6Q940.811,1436.32 942.379,1436.32Q943.947,1436.32 945.323,1435.584ZM970.763,1421.056L970.763,1438.592L967.851,1438.592L967.851,1436Q967.019,1437.344 965.531,1438.096Q964.043,1438.848 962.251,1438.848Q960.203,1438.848 958.571,1438Q956.939,1437.152 955.995,1435.456Q955.051,1433.76 955.051,1431.328L955.051,1421.056L957.931,1421.056L957.931,1430.944Q957.931,1433.536 959.243,1434.928Q960.555,1436.32 962.827,1436.32Q965.163,1436.32 966.507,1434.88Q967.851,1433.44 967.851,1430.688L967.851,1421.056L970.763,1421.056ZM980.795,1421.568Q982.219,1420.736 984.267,1420.736L984.267,1423.744L983.499,1423.744Q978.603,1423.744 978.603,1429.056L978.603,1438.592L975.691,1438.592L975.691,1421.056L978.603,1421.056L978.603,1423.904Q979.371,1422.4 980.795,1421.568ZM1001.659,1421.776Q1003.371,1420.768 1005.643,1420.768Q1007.979,1420.768 1009.883,1421.888Q1011.787,1423.008 1012.875,1425.04Q1013.963,1427.072 1013.963,1429.76Q1013.963,1432.416 1012.875,1434.496Q1011.787,1436.576 1009.883,1437.728Q1007.979,1438.88 1005.643,1438.88Q1003.403,1438.88 1001.691,1437.872Q999.979,1436.864 999.083,1435.36L999.083,1446.912L996.171,1446.912L996.171,1421.056L999.083,1421.056L999.083,1424.288Q999.947,1422.784 1001.659,1421.776M1010.187,1426.304Q1009.387,1424.832 1008.027,1424.064Q1006.667,1423.296 1005.035,1423.296Q1003.435,1423.296 1002.075,1424.08Q1000.715,1424.864 999.899,1426.352Q999.083,1427.84 999.083,1429.792Q999.083,1431.776 999.899,1433.264Q1000.715,1434.752 1002.075,1435.536Q1003.435,1436.32 1005.035,1436.32Q1006.667,1436.32 1008.027,1435.536Q1009.387,1434.752 1010.187,1433.264Q1010.987,1431.776 1010.987,1429.76Q1010.987,1427.776 1010.187,1426.304ZM1017.803,1425.04Q1018.891,1423.008 1020.795,1421.888Q1022.699,1420.768 1025.035,1420.768Q1027.339,1420.768 1029.035,1421.76Q1030.731,1422.752 1031.563,1424.256L1031.563,1421.056L1034.507,1421.056L1034.507,1438.592L1031.563,1438.592L1031.563,1435.328Q1030.699,1436.864 1028.987,1437.872Q1027.275,1438.88 1025.003,1438.88Q1022.667,1438.88 1020.779,1437.728Q1018.891,1436.576 1017.803,1434.496Q1016.715,1432.416 1016.715,1429.76Q1016.715,1427.072 1017.803,1425.04M1030.763,1426.336Q1029.963,1424.864 1028.603,1424.08Q1027.243,1423.296 1025.611,1423.296Q1023.979,1423.296 1022.635,1424.064Q1021.291,1424.832 1020.491,1426.304Q1019.691,1427.776 1019.691,1429.76Q1019.691,1431.776 1020.491,1433.264Q1021.291,1434.752 1022.635,1435.536Q1023.979,1436.32 1025.611,1436.32Q1027.243,1436.32 1028.603,1435.536Q1029.963,1434.752 1030.763,1433.264Q1031.563,1431.776 1031.563,1429.792Q1031.563,1427.808 1030.763,1426.336ZM1042.027,1438.192Q1040.427,1437.504 1039.499,1436.272Q1038.571,1435.04 1038.475,1433.44L1041.483,1433.44Q1041.611,1434.752 1042.715,1435.584Q1043.819,1436.416 1045.611,1436.416Q1047.275,1436.416 1048.235,1435.68Q1049.195,1434.944 1049.195,1433.824Q1049.195,1432.672 1048.171,1432.112Q1047.147,1431.552 1045.003,1431.008Q1043.051,1430.496 1041.819,1429.968Q1040.587,1429.44 1039.707,1428.4Q1038.827,1427.36 1038.827,1425.664Q1038.827,1424.32 1039.627,1423.2Q1040.427,1422.08 1041.899,1421.424Q1043.371,1420.768 1045.259,1420.768Q1048.171,1420.768 1049.963,1422.24Q1051.755,1423.712 1051.883,1426.272L1048.971,1426.272Q1048.875,1424.896 1047.867,1424.064Q1046.859,1423.232 1045.163,1423.232Q1043.595,1423.232 1042.667,1423.904Q1041.739,1424.576 1041.739,1425.664Q1041.739,1426.528 1042.299,1427.088Q1042.859,1427.648 1043.707,1427.984Q1044.555,1428.32 1046.059,1428.736Q1047.947,1429.248 1049.131,1429.744Q1050.315,1430.24 1051.163,1431.232Q1052.011,1432.224 1052.043,1433.824Q1052.043,1435.264 1051.243,1436.416Q1050.443,1437.568 1048.987,1438.224Q1047.531,1438.88 1045.643,1438.88Q1043.627,1438.88 1042.027,1438.192ZM1058.731,1438.192Q1057.131,1437.504 1056.203,1436.272Q1055.275,1435.04 1055.179,1433.44L1058.187,1433.44Q1058.315,1434.752 1059.419,1435.584Q1060.523,1436.416 1062.315,1436.416Q1063.979,1436.416 1064.939,1435.68Q1065.899,1434.944 1065.899,1433.824Q1065.899,1432.672 1064.875,1432.112Q1063.851,1431.552 1061.707,1431.008Q1059.755,1430.496 1058.523,1429.968Q1057.291,1429.44 1056.411,1428.4Q1055.531,1427.36 1055.531,1425.664Q1055.531,1424.32 1056.331,1423.2Q1057.131,1422.08 1058.603,1421.424Q1060.075,1420.768 1061.963,1420.768Q1064.875,1420.768 1066.667,1422.24Q1068.459,1423.712 1068.587,1426.272L1065.675,1426.272Q1065.579,1424.896 1064.571,1424.064Q1063.563,1423.232 1061.867,1423.232Q1060.299,1423.232 1059.371,1423.904Q1058.443,1424.576 1058.443,1425.664Q1058.443,1426.528 1059.003,1427.088Q1059.563,1427.648 1060.411,1427.984Q1061.259,1428.32 1062.763,1428.736Q1064.651,1429.248 1065.835,1429.744Q1067.019,1430.24 1067.867,1431.232Q1068.715,1432.224 1068.747,1433.824Q1068.747,1435.264 1067.947,1436.416Q1067.147,1437.568 1065.691,1438.224Q1064.235,1438.88 1062.347,1438.88Q1060.331,1438.88 1058.731,1438.192ZM1096.203,1421.056L1090.731,1438.592L1087.723,1438.592L1083.499,1424.672L1079.275,1438.592L1076.267,1438.592L1070.763,1421.056L1073.739,1421.056L1077.771,1435.776L1082.123,1421.056L1085.099,1421.056L1089.355,1435.808L1093.323,1421.056L1096.203,1421.056ZM1102.267,1437.76Q1100.267,1436.64 1099.131,1434.576Q1097.995,1432.512 1097.995,1429.792Q1097.995,1427.104 1099.163,1425.04Q1100.331,1422.976 1102.347,1421.872Q1104.363,1420.768 1106.859,1420.768Q1109.355,1420.768 1111.371,1421.872Q1113.387,1422.976 1114.555,1425.024Q1115.723,1427.072 1115.723,1429.792Q1115.723,1432.512 1114.523,1434.576Q1113.323,1436.64 1111.275,1437.76Q1109.227,1438.88 1106.731,1438.88Q1104.267,1438.88 1102.267,1437.76M1109.675,1435.584Q1111.051,1434.848 1111.899,1433.376Q1112.747,1431.904 1112.747,1429.792Q1112.747,1427.68 1111.915,1426.208Q1111.083,1424.736 1109.739,1424.016Q1108.395,1423.296 1106.827,1423.296Q1105.227,1423.296 1103.899,1424.016Q1102.571,1424.736 1101.771,1426.208Q1100.971,1427.68 1100.971,1429.792Q1100.971,1431.936 1101.755,1433.408Q1102.539,1434.88 1103.851,1435.6Q1105.163,1436.32 1106.731,1436.32Q1108.299,1436.32 1109.675,1435.584ZM1124.667,1421.568Q1126.091,1420.736 1128.139,1420.736L1128.139,1423.744L1127.371,1423.744Q1122.475,1423.744 1122.475,1429.056L1122.475,1438.592L1119.563,1438.592L1119.563,1421.056L1122.475,1421.056L1122.475,1423.904Q1123.243,1422.4 1124.667,1421.568ZM1131.499,1425.04Q1132.587,1423.008 1134.491,1421.888Q1136.395,1420.768 1138.763,1420.768Q1140.811,1420.768 1142.571,1421.712Q1144.331,1422.656 1145.259,1424.192L1145.259,1414.912L1148.203,1414.912L1148.203,1438.592L1145.259,1438.592L1145.259,1435.296Q1144.395,1436.864 1142.699,1437.872Q1141.003,1438.88 1138.731,1438.88Q1136.395,1438.88 1134.491,1437.728Q1132.587,1436.576 1131.499,1434.496Q1130.411,1432.416 1130.411,1429.76Q1130.411,1427.072 1131.499,1425.04M1144.459,1426.336Q1143.659,1424.864 1142.299,1424.08Q1140.939,1423.296 1139.307,1423.296Q1137.675,1423.296 1136.331,1424.064Q1134.987,1424.832 1134.187,1426.304Q1133.387,1427.776 1133.387,1429.76Q1133.387,1431.776 1134.187,1433.264Q1134.987,1434.752 1136.331,1435.536Q1137.675,1436.32 1139.307,1436.32Q1140.939,1436.32 1142.299,1435.536Q1143.659,1434.752 1144.459,1433.264Q1145.259,1431.776 1145.259,1429.792Q1145.259,1427.808 1144.459,1426.336Z" fill="#666666"/>
<path d="M1845.617,1417.554L1844.145,1416.082C1843.729,1415.666 1842.961,1415.73 1842.481,1416.306L1837.361,1421.394C1835.057,1420.402 1832.529,1419.922 1829.873,1419.922C1821.969,1419.954 1815.121,1424.562 1811.825,1431.186C1811.633,1431.602 1811.633,1432.114 1811.825,1432.466C1813.361,1435.602 1815.665,1438.194 1818.545,1440.146L1814.353,1444.402C1813.873,1444.882 1813.809,1445.65 1814.129,1446.066L1815.601,1447.538C1816.017,1447.954 1816.785,1447.89 1817.265,1447.314L1845.361,1419.218C1845.969,1418.74 1846.033,1417.972 1845.617,1417.556L1845.617,1417.554ZM1831.569,1427.218C1831.025,1427.09 1830.449,1426.93 1829.905,1426.93C1827.185,1426.93 1825.009,1429.106 1825.009,1431.826C1825.009,1432.37 1825.137,1432.946 1825.297,1433.49L1823.153,1435.602C1822.513,1434.482 1822.161,1433.234 1822.161,1431.826C1822.161,1427.57 1825.585,1424.146 1829.841,1424.146C1831.249,1424.146 1832.497,1424.498 1833.617,1425.138L1831.569,1427.218Z" fill="#666666" fill-opacity="0.8"/>
<path d="M1847.921,1431.186C1846.801,1428.946 1845.329,1426.93 1843.505,1425.298L1837.553,1431.186L1837.553,1431.826C1837.553,1436.082 1834.129,1439.506 1829.873,1439.506L1829.233,1439.506L1825.457,1443.282C1826.867,1443.57 1828.337,1443.762 1829.777,1443.762C1837.683,1443.762 1844.529,1439.154 1847.825,1432.498C1848.113,1432.05 1848.113,1431.602 1847.921,1431.186Z" fill="#666666" fill-opacity="0.8"/>
<path d="M1893.519,1418.1L1893.519,1443.192L1890.243,1443.192L1890.243,1431.816L1877.463,1431.816L1877.463,1443.192L1874.187,1443.192L1874.187,1418.1L1877.463,1418.1L1877.463,1429.116L1890.243,1429.116L1890.243,1418.1L1893.519,1418.1ZM1899.207,1419.612Q1898.559,1418.964 1898.559,1418.028Q1898.559,1417.092 1899.207,1416.444Q1899.855,1415.796 1900.791,1415.796Q1901.691,1415.796 1902.321,1416.444Q1902.951,1417.092 1902.951,1418.028Q1902.951,1418.964 1902.321,1419.612Q1901.691,1420.26 1900.791,1420.26Q1899.855,1420.26 1899.207,1419.612M1902.375,1423.464L1902.375,1443.192L1899.099,1443.192L1899.099,1423.464L1902.375,1423.464ZM1907.955,1427.946Q1909.179,1425.66 1911.321,1424.4Q1913.463,1423.14 1916.127,1423.14Q1918.431,1423.14 1920.411,1424.202Q1922.391,1425.264 1923.435,1426.992L1923.435,1416.552L1926.747,1416.552L1926.747,1443.192L1923.435,1443.192L1923.435,1439.484Q1922.463,1441.248 1920.555,1442.382Q1918.647,1443.516 1916.091,1443.516Q1913.463,1443.516 1911.321,1442.22Q1909.179,1440.924 1907.955,1438.584Q1906.731,1436.244 1906.731,1433.256Q1906.731,1430.232 1907.955,1427.946M1922.535,1429.404Q1921.635,1427.748 1920.105,1426.866Q1918.575,1425.984 1916.739,1425.984Q1914.903,1425.984 1913.391,1426.848Q1911.879,1427.712 1910.979,1429.368Q1910.079,1431.024 1910.079,1433.256Q1910.079,1435.524 1910.979,1437.198Q1911.879,1438.872 1913.391,1439.754Q1914.903,1440.636 1916.739,1440.636Q1918.575,1440.636 1920.105,1439.754Q1921.635,1438.872 1922.535,1437.198Q1923.435,1435.524 1923.435,1433.292Q1923.435,1431.06 1922.535,1429.404ZM1950.183,1434.552L1934.415,1434.552Q1934.595,1437.468 1936.413,1439.106Q1938.231,1440.744 1940.823,1440.744Q1942.947,1440.744 1944.369,1439.754Q1945.791,1438.764 1946.367,1437.108L1949.895,1437.108Q1949.103,1439.952 1946.727,1441.734Q1944.351,1443.516 1940.823,1443.516Q1938.015,1443.516 1935.801,1442.256Q1933.587,1440.996 1932.327,1438.674Q1931.067,1436.352 1931.067,1433.292Q1931.067,1430.232 1932.291,1427.928Q1933.515,1425.624 1935.729,1424.382Q1937.943,1423.14 1940.823,1423.14Q1943.631,1423.14 1945.791,1424.364Q1947.951,1425.588 1949.121,1427.73Q1950.291,1429.872 1950.291,1432.572Q1950.291,1433.508 1950.183,1434.552M1946.079,1428.666Q1945.251,1427.316 1943.829,1426.614Q1942.407,1425.912 1940.679,1425.912Q1938.195,1425.912 1936.449,1427.496Q1934.703,1429.08 1934.451,1431.888L1946.907,1431.888Q1946.907,1430.016 1946.079,1428.666Z" fill="#666666" fill-opacity="0.8"/>
<path d="M937.579,1465.792L1945.579,1465.792L1945.579,1463.792L937.579,1463.792L937.579,1465.792ZM1945.579,1465.792C1957.729,1465.792 1967.579,1475.642 1967.579,1487.792L1969.579,1487.792C1969.579,1474.538 1958.833,1463.792 1945.579,1463.792L1945.579,1465.792ZM1967.579,1487.792L1967.579,1551.792L1969.579,1551.792L1969.579,1487.792L1967.579,1487.792ZM1967.579,1551.792C1967.579,1563.943 1957.729,1573.792 1945.579,1573.792L1945.579,1575.792C1958.833,1575.792 1969.579,1565.047 1969.579,1551.792L1967.579,1551.792ZM1945.579,1573.792L937.579,1573.792L937.579,1575.792L1945.579,1575.792L1945.579,1573.792ZM937.579,1573.792C925.428,1573.792 915.579,1563.943 915.579,1551.792L913.579,1551.792C913.579,1565.047 924.324,1575.792 937.579,1575.792L937.579,1573.792ZM915.579,1551.792L915.579,1487.792L913.579,1487.792L913.579,1551.792L915.579,1551.792ZM915.579,1487.792C915.579,1475.642 925.428,1465.792 937.579,1465.792L937.579,1463.792C924.324,1463.792 913.579,1474.538 913.579,1487.792L915.579,1487.792Z" fill="#666666" fill-opacity="0.35"/>
<path d="M1638.057,1606.288L1638.057,1608.656L1628.361,1608.656L1628.361,1616.176L1636.233,1616.176L1636.233,1618.544L1628.361,1618.544L1628.361,1628.592L1625.449,1628.592L1625.449,1606.288L1638.057,1606.288ZM1644.761,1627.76Q1642.761,1626.64 1641.625,1624.576Q1640.489,1622.512 1640.489,1619.792Q1640.489,1617.104 1641.657,1615.04Q1642.825,1612.976 1644.841,1611.872Q1646.857,1610.768 1649.353,1610.768Q1651.849,1610.768 1653.865,1611.872Q1655.881,1612.976 1657.049,1615.024Q1658.217,1617.072 1658.217,1619.792Q1658.217,1622.512 1657.017,1624.576Q1655.817,1626.64 1653.769,1627.76Q1651.721,1628.88 1649.225,1628.88Q1646.761,1628.88 1644.761,1627.76M1652.169,1625.584Q1653.545,1624.848 1654.393,1623.376Q1655.241,1621.904 1655.241,1619.792Q1655.241,1617.68 1654.409,1616.208Q1653.577,1614.736 1652.233,1614.016Q1650.889,1613.296 1649.321,1613.296Q1647.721,1613.296 1646.393,1614.016Q1645.065,1614.736 1644.265,1616.208Q1643.465,1617.68 1643.465,1619.792Q1643.465,1621.936 1644.249,1623.408Q1645.033,1624.88 1646.345,1625.6Q1647.657,1626.32 1649.225,1626.32Q1650.793,1626.32 1652.169,1625.584ZM1667.161,1611.568Q1668.585,1610.736 1670.633,1610.736L1670.633,1613.744L1669.865,1613.744Q1664.969,1613.744 1664.969,1619.056L1664.969,1628.592L1662.057,1628.592L1662.057,1611.056L1664.969,1611.056L1664.969,1613.904Q1665.737,1612.4 1667.161,1611.568ZM1685.209,1611.76Q1686.921,1612.752 1687.753,1614.256L1687.753,1611.056L1690.697,1611.056L1690.697,1628.976Q1690.697,1631.376 1689.673,1633.248Q1688.649,1635.12 1686.745,1636.176Q1684.841,1637.232 1682.313,1637.232Q1678.857,1637.232 1676.553,1635.6Q1674.249,1633.968 1673.833,1631.152L1676.713,1631.152Q1677.193,1632.752 1678.697,1633.728Q1680.201,1634.704 1682.313,1634.704Q1684.713,1634.704 1686.233,1633.2Q1687.753,1631.696 1687.753,1628.976L1687.753,1625.296Q1686.889,1626.832 1685.193,1627.856Q1683.497,1628.88 1681.225,1628.88Q1678.889,1628.88 1676.985,1627.728Q1675.081,1626.576 1673.993,1624.496Q1672.905,1622.416 1672.905,1619.76Q1672.905,1617.072 1673.993,1615.04Q1675.081,1613.008 1676.985,1611.888Q1678.889,1610.768 1681.225,1610.768Q1683.497,1610.768 1685.209,1611.76M1686.953,1616.336Q1686.153,1614.864 1684.793,1614.08Q1683.433,1613.296 1681.801,1613.296Q1680.169,1613.296 1678.825,1614.064Q1677.481,1614.832 1676.681,1616.304Q1675.881,1617.776 1675.881,1619.76Q1675.881,1621.776 1676.681,1623.264Q1677.481,1624.752 1678.825,1625.536Q1680.169,1626.32 1681.801,1626.32Q1683.433,1626.32 1684.793,1625.536Q1686.153,1624.752 1686.953,1623.264Q1687.753,1621.776 1687.753,1619.792Q1687.753,1617.808 1686.953,1616.336ZM1711.529,1620.912L1697.513,1620.912Q1697.673,1623.504 1699.289,1624.96Q1700.905,1626.416 1703.209,1626.416Q1705.097,1626.416 1706.361,1625.536Q1707.625,1624.656 1708.137,1623.184L1711.273,1623.184Q1710.569,1625.712 1708.457,1627.296Q1706.345,1628.88 1703.209,1628.88Q1700.713,1628.88 1698.745,1627.76Q1696.777,1626.64 1695.657,1624.576Q1694.537,1622.512 1694.537,1619.792Q1694.537,1617.072 1695.625,1615.024Q1696.713,1612.976 1698.681,1611.872Q1700.649,1610.768 1703.209,1610.768Q1705.705,1610.768 1707.625,1611.856Q1709.545,1612.944 1710.585,1614.848Q1711.625,1616.752 1711.625,1619.152Q1711.625,1619.984 1711.529,1620.912M1707.881,1615.68Q1707.145,1614.48 1705.881,1613.856Q1704.617,1613.232 1703.081,1613.232Q1700.873,1613.232 1699.321,1614.64Q1697.769,1616.048 1697.545,1618.544L1708.617,1618.544Q1708.617,1616.88 1707.881,1615.68ZM1719.017,1613.456L1719.017,1623.792Q1719.017,1625.072 1719.561,1625.6Q1720.105,1626.128 1721.449,1626.128L1723.593,1626.128L1723.593,1628.592L1720.969,1628.592Q1718.537,1628.592 1717.321,1627.472Q1716.105,1626.352 1716.105,1623.792L1716.105,1613.456L1713.833,1613.456L1713.833,1611.056L1716.105,1611.056L1716.105,1606.64L1719.017,1606.64L1719.017,1611.056L1723.593,1611.056L1723.593,1613.456L1719.017,1613.456ZM1750.761,1611.056L1740.201,1636.848L1737.193,1636.848L1740.649,1628.4L1733.577,1611.056L1736.809,1611.056L1742.313,1625.264L1747.753,1611.056L1750.761,1611.056ZM1756.857,1627.76Q1754.857,1626.64 1753.721,1624.576Q1752.585,1622.512 1752.585,1619.792Q1752.585,1617.104 1753.753,1615.04Q1754.921,1612.976 1756.937,1611.872Q1758.953,1610.768 1761.449,1610.768Q1763.945,1610.768 1765.961,1611.872Q1767.977,1612.976 1769.145,1615.024Q1770.313,1617.072 1770.313,1619.792Q1770.313,1622.512 1769.113,1624.576Q1767.913,1626.64 1765.865,1627.76Q1763.817,1628.88 1761.321,1628.88Q1758.857,1628.88 1756.857,1627.76M1764.265,1625.584Q1765.641,1624.848 1766.489,1623.376Q1767.337,1621.904 1767.337,1619.792Q1767.337,1617.68 1766.505,1616.208Q1765.673,1614.736 1764.329,1614.016Q1762.985,1613.296 1761.417,1613.296Q1759.817,1613.296 1758.489,1614.016Q1757.161,1614.736 1756.361,1616.208Q1755.561,1617.68 1755.561,1619.792Q1755.561,1621.936 1756.345,1623.408Q1757.129,1624.88 1758.441,1625.6Q1759.753,1626.32 1761.321,1626.32Q1762.889,1626.32 1764.265,1625.584ZM1789.705,1611.056L1789.705,1628.592L1786.793,1628.592L1786.793,1626Q1785.961,1627.344 1784.473,1628.096Q1782.985,1628.848 1781.193,1628.848Q1779.145,1628.848 1777.513,1628Q1775.881,1627.152 1774.937,1625.456Q1773.993,1623.76 1773.993,1621.328L1773.993,1611.056L1776.873,1611.056L1776.873,1620.944Q1776.873,1623.536 1778.185,1624.928Q1779.497,1626.32 1781.769,1626.32Q1784.105,1626.32 1785.449,1624.88Q1786.793,1623.44 1786.793,1620.688L1786.793,1611.056L1789.705,1611.056ZM1799.737,1611.568Q1801.161,1610.736 1803.209,1610.736L1803.209,1613.744L1802.441,1613.744Q1797.545,1613.744 1797.545,1619.056L1797.545,1628.592L1794.633,1628.592L1794.633,1611.056L1797.545,1611.056L1797.545,1613.904Q1798.313,1612.4 1799.737,1611.568ZM1820.601,1611.776Q1822.313,1610.768 1824.585,1610.768Q1826.921,1610.768 1828.825,1611.888Q1830.729,1613.008 1831.817,1615.04Q1832.905,1617.072 1832.905,1619.76Q1832.905,1622.416 1831.817,1624.496Q1830.729,1626.576 1828.825,1627.728Q1826.921,1628.88 1824.585,1628.88Q1822.345,1628.88 1820.633,1627.872Q1818.921,1626.864 1818.025,1625.36L1818.025,1636.912L1815.113,1636.912L1815.113,1611.056L1818.025,1611.056L1818.025,1614.288Q1818.889,1612.784 1820.601,1611.776M1829.129,1616.304Q1828.329,1614.832 1826.969,1614.064Q1825.609,1613.296 1823.977,1613.296Q1822.377,1613.296 1821.017,1614.08Q1819.657,1614.864 1818.841,1616.352Q1818.025,1617.84 1818.025,1619.792Q1818.025,1621.776 1818.841,1623.264Q1819.657,1624.752 1821.017,1625.536Q1822.377,1626.32 1823.977,1626.32Q1825.609,1626.32 1826.969,1625.536Q1828.329,1624.752 1829.129,1623.264Q1829.929,1621.776 1829.929,1619.76Q1829.929,1617.776 1829.129,1616.304ZM1836.745,1615.04Q1837.833,1613.008 1839.737,1611.888Q1841.641,1610.768 1843.977,1610.768Q1846.281,1610.768 1847.977,1611.76Q1849.673,1612.752 1850.505,1614.256L1850.505,1611.056L1853.449,1611.056L1853.449,1628.592L1850.505,1628.592L1850.505,1625.328Q1849.641,1626.864 1847.929,1627.872Q1846.217,1628.88 1843.945,1628.88Q1841.609,1628.88 1839.721,1627.728Q1837.833,1626.576 1836.745,1624.496Q1835.657,1622.416 1835.657,1619.76Q1835.657,1617.072 1836.745,1615.04M1849.705,1616.336Q1848.905,1614.864 1847.545,1614.08Q1846.185,1613.296 1844.553,1613.296Q1842.921,1613.296 1841.577,1614.064Q1840.233,1614.832 1839.433,1616.304Q1838.633,1617.776 1838.633,1619.76Q1838.633,1621.776 1839.433,1623.264Q1840.233,1624.752 1841.577,1625.536Q1842.921,1626.32 1844.553,1626.32Q1846.185,1626.32 1847.545,1625.536Q1848.905,1624.752 1849.705,1623.264Q1850.505,1621.776 1850.505,1619.792Q1850.505,1617.808 1849.705,1616.336ZM1860.969,1628.192Q1859.369,1627.504 1858.441,1626.272Q1857.513,1625.04 1857.417,1623.44L1860.425,1623.44Q1860.553,1624.752 1861.657,1625.584Q1862.761,1626.416 1864.553,1626.416Q1866.217,1626.416 1867.177,1625.68Q1868.137,1624.944 1868.137,1623.824Q1868.137,1622.672 1867.113,1622.112Q1866.089,1621.552 1863.945,1621.008Q1861.993,1620.496 1860.761,1619.968Q1859.529,1619.44 1858.649,1618.4Q1857.769,1617.36 1857.769,1615.664Q1857.769,1614.32 1858.569,1613.2Q1859.369,1612.08 1860.841,1611.424Q1862.313,1610.768 1864.201,1610.768Q1867.113,1610.768 1868.905,1612.24Q1870.697,1613.712 1870.825,1616.272L1867.913,1616.272Q1867.817,1614.896 1866.809,1614.064Q1865.801,1613.232 1864.105,1613.232Q1862.537,1613.232 1861.609,1613.904Q1860.681,1614.576 1860.681,1615.664Q1860.681,1616.528 1861.241,1617.088Q1861.801,1617.648 1862.649,1617.984Q1863.497,1618.32 1865.001,1618.736Q1866.889,1619.248 1868.073,1619.744Q1869.257,1620.24 1870.105,1621.232Q1870.953,1622.224 1870.985,1623.824Q1870.985,1625.264 1870.185,1626.416Q1869.385,1627.568 1867.929,1628.224Q1866.473,1628.88 1864.585,1628.88Q1862.569,1628.88 1860.969,1628.192ZM1877.673,1628.192Q1876.073,1627.504 1875.145,1626.272Q1874.217,1625.04 1874.121,1623.44L1877.129,1623.44Q1877.257,1624.752 1878.361,1625.584Q1879.465,1626.416 1881.257,1626.416Q1882.921,1626.416 1883.881,1625.68Q1884.841,1624.944 1884.841,1623.824Q1884.841,1622.672 1883.817,1622.112Q1882.793,1621.552 1880.649,1621.008Q1878.697,1620.496 1877.465,1619.968Q1876.233,1619.44 1875.353,1618.4Q1874.473,1617.36 1874.473,1615.664Q1874.473,1614.32 1875.273,1613.2Q1876.073,1612.08 1877.545,1611.424Q1879.017,1610.768 1880.905,1610.768Q1883.817,1610.768 1885.609,1612.24Q1887.401,1613.712 1887.529,1616.272L1884.617,1616.272Q1884.521,1614.896 1883.513,1614.064Q1882.505,1613.232 1880.809,1613.232Q1879.241,1613.232 1878.313,1613.904Q1877.385,1614.576 1877.385,1615.664Q1877.385,1616.528 1877.945,1617.088Q1878.505,1617.648 1879.353,1617.984Q1880.201,1618.32 1881.705,1618.736Q1883.593,1619.248 1884.777,1619.744Q1885.961,1620.24 1886.809,1621.232Q1887.657,1622.224 1887.689,1623.824Q1887.689,1625.264 1886.889,1626.416Q1886.089,1627.568 1884.633,1628.224Q1883.177,1628.88 1881.289,1628.88Q1879.273,1628.88 1877.673,1628.192ZM1915.145,1611.056L1909.673,1628.592L1906.665,1628.592L1902.441,1614.672L1898.217,1628.592L1895.209,1628.592L1889.705,1611.056L1892.681,1611.056L1896.713,1625.776L1901.065,1611.056L1904.041,1611.056L1908.297,1625.808L1912.265,1611.056L1915.145,1611.056ZM1921.209,1627.76Q1919.209,1626.64 1918.073,1624.576Q1916.937,1622.512 1916.937,1619.792Q1916.937,1617.104 1918.105,1615.04Q1919.273,1612.976 1921.289,1611.872Q1923.305,1610.768 1925.801,1610.768Q1928.297,1610.768 1930.313,1611.872Q1932.329,1612.976 1933.497,1615.024Q1934.665,1617.072 1934.665,1619.792Q1934.665,1622.512 1933.465,1624.576Q1932.265,1626.64 1930.217,1627.76Q1928.169,1628.88 1925.673,1628.88Q1923.209,1628.88 1921.209,1627.76M1928.617,1625.584Q1929.993,1624.848 1930.841,1623.376Q1931.689,1621.904 1931.689,1619.792Q1931.689,1617.68 1930.857,1616.208Q1930.025,1614.736 1928.681,1614.016Q1927.337,1613.296 1925.769,1613.296Q1924.169,1613.296 1922.841,1614.016Q1921.513,1614.736 1920.713,1616.208Q1919.913,1617.68 1919.913,1619.792Q1919.913,1621.936 1920.697,1623.408Q1921.481,1624.88 1922.793,1625.6Q1924.105,1626.32 1925.673,1626.32Q1927.241,1626.32 1928.617,1625.584ZM1943.609,1611.568Q1945.033,1610.736 1947.081,1610.736L1947.081,1613.744L1946.313,1613.744Q1941.417,1613.744 1941.417,1619.056L1941.417,1628.592L1938.505,1628.592L1938.505,1611.056L1941.417,1611.056L1941.417,1613.904Q1942.185,1612.4 1943.609,1611.568ZM1950.441,1615.04Q1951.529,1613.008 1953.433,1611.888Q1955.337,1610.768 1957.705,1610.768Q1959.753,1610.768 1961.513,1611.712Q1963.273,1612.656 1964.201,1614.192L1964.201,1604.912L1967.145,1604.912L1967.145,1628.592L1964.201,1628.592L1964.201,1625.296Q1963.337,1626.864 1961.641,1627.872Q1959.945,1628.88 1957.673,1628.88Q1955.337,1628.88 1953.433,1627.728Q1951.529,1626.576 1950.441,1624.496Q1949.353,1622.416 1949.353,1619.76Q1949.353,1617.072 1950.441,1615.04M1963.401,1616.336Q1962.601,1614.864 1961.241,1614.08Q1959.881,1613.296 1958.249,1613.296Q1956.617,1613.296 1955.273,1614.064Q1953.929,1614.832 1953.129,1616.304Q1952.329,1617.776 1952.329,1619.76Q1952.329,1621.776 1953.129,1623.264Q1953.929,1624.752 1955.273,1625.536Q1956.617,1626.32 1958.249,1626.32Q1959.881,1626.32 1961.241,1625.536Q1962.601,1624.752 1963.401,1623.264Q1964.201,1621.776 1964.201,1619.792Q1964.201,1617.808 1963.401,1616.336Z" fill="#111111"/>
<g opacity="0.25">
<path d="M1905.579,1687.792L977.579,1687.792C942.233,1687.792 913.579,1716.446 913.579,1751.792C913.579,1787.139 942.233,1815.792 977.579,1815.792L1905.579,1815.792C1940.925,1815.792 1969.579,1787.139 1969.579,1751.792C1969.579,1716.446 1940.925,1687.792 1905.579,1687.792Z" fill="#111111"/>
<path d="M1384.453,1765.136L1395.189,1765.136L1395.189,1768.392L1380.449,1768.392L1380.449,1737.724L1384.453,1737.724L1384.453,1765.136ZM1403.835,1767.248Q1401.085,1765.708 1399.523,1762.87Q1397.961,1760.032 1397.961,1756.292Q1397.961,1752.596 1399.567,1749.758Q1401.173,1746.92 1403.945,1745.402Q1406.717,1743.884 1410.149,1743.884Q1413.581,1743.884 1416.353,1745.402Q1419.125,1746.92 1420.731,1749.736Q1422.337,1752.552 1422.337,1756.292Q1422.337,1760.032 1420.687,1762.87Q1419.037,1765.708 1416.221,1767.248Q1413.405,1768.788 1409.973,1768.788Q1406.585,1768.788 1403.835,1767.248M1414.021,1764.256Q1415.913,1763.244 1417.079,1761.22Q1418.245,1759.196 1418.245,1756.292Q1418.245,1753.388 1417.101,1751.364Q1415.957,1749.34 1414.109,1748.35Q1412.261,1747.36 1410.105,1747.36Q1407.905,1747.36 1406.079,1748.35Q1404.253,1749.34 1403.153,1751.364Q1402.053,1753.388 1402.053,1756.292Q1402.053,1759.24 1403.131,1761.264Q1404.209,1763.288 1406.013,1764.278Q1407.817,1765.268 1409.973,1765.268Q1412.129,1765.268 1414.021,1764.256ZM1443.039,1745.248Q1445.393,1746.612 1446.537,1748.68L1446.537,1744.28L1450.585,1744.28L1450.585,1768.92Q1450.585,1772.22 1449.177,1774.794Q1447.769,1777.368 1445.151,1778.82Q1442.533,1780.272 1439.057,1780.272Q1434.305,1780.272 1431.137,1778.028Q1427.969,1775.784 1427.397,1771.912L1431.357,1771.912Q1432.017,1774.112 1434.085,1775.454Q1436.153,1776.796 1439.057,1776.796Q1442.357,1776.796 1444.447,1774.728Q1446.537,1772.66 1446.537,1768.92L1446.537,1763.86Q1445.349,1765.972 1443.017,1767.38Q1440.685,1768.788 1437.561,1768.788Q1434.349,1768.788 1431.731,1767.204Q1429.113,1765.62 1427.617,1762.76Q1426.121,1759.9 1426.121,1756.248Q1426.121,1752.552 1427.617,1749.758Q1429.113,1746.964 1431.731,1745.424Q1434.349,1743.884 1437.561,1743.884Q1440.685,1743.884 1443.039,1745.248M1445.437,1751.54Q1444.337,1749.516 1442.467,1748.438Q1440.597,1747.36 1438.353,1747.36Q1436.109,1747.36 1434.261,1748.416Q1432.413,1749.472 1431.313,1751.496Q1430.213,1753.52 1430.213,1756.248Q1430.213,1759.02 1431.313,1761.066Q1432.413,1763.112 1434.261,1764.19Q1436.109,1765.268 1438.353,1765.268Q1440.597,1765.268 1442.467,1764.19Q1444.337,1763.112 1445.437,1761.066Q1446.537,1759.02 1446.537,1756.292Q1446.537,1753.564 1445.437,1751.54ZM1469.241,1739.572Q1468.449,1738.78 1468.449,1737.636Q1468.449,1736.492 1469.241,1735.7Q1470.033,1734.908 1471.177,1734.908Q1472.277,1734.908 1473.047,1735.7Q1473.817,1736.492 1473.817,1737.636Q1473.817,1738.78 1473.047,1739.572Q1472.277,1740.364 1471.177,1740.364Q1470.033,1740.364 1469.241,1739.572M1473.113,1744.28L1473.113,1768.392L1469.109,1768.392L1469.109,1744.28L1473.113,1744.28ZM1498.809,1746.502Q1501.537,1749.164 1501.537,1754.18L1501.537,1768.392L1497.577,1768.392L1497.577,1754.752Q1497.577,1751.144 1495.773,1749.23Q1493.969,1747.316 1490.845,1747.316Q1487.677,1747.316 1485.807,1749.296Q1483.937,1751.276 1483.937,1755.06L1483.937,1768.392L1479.933,1768.392L1479.933,1744.28L1483.937,1744.28L1483.937,1747.712Q1485.125,1745.864 1487.171,1744.852Q1489.217,1743.84 1491.681,1743.84Q1496.081,1743.84 1498.809,1746.502Z" fill="#FFFFFF"/>
</g>
</svg>
